<?xml version="1.0" encoding="UTF-8"?><svg id="_イヤー_2" xmlns="http://www.w3.org/2000/svg" viewBox="0 0 203.87 103.62"><defs><style>.cls-1{stroke-width:1.23px;}.cls-1,.cls-2{fill:#094;stroke:#094;stroke-miterlimit:10;}.cls-3{font-size:19.05px;letter-spacing:.31em;}.cls-4{fill:#0d3219;font-family:HGPMinchoE, HGPMinchoE;}.cls-5{letter-spacing:-.15em;}.cls-5,.cls-6{font-size:26.98px;}.cls-6{letter-spacing:-.03em;}</style></defs><g id="_イヤー_1-2"><g><text class="cls-4" transform="translate(35.39 100.85) scale(1 .75)"><tspan class="cls-6" x="0" y="0">hai</tspan><tspan class="cls-5" x="32.98" y="0">r</tspan><tspan class="cls-6" x="39.58" y="0"> </tspan><tspan class="cls-3" x="47.73" y="0">&amp;</tspan><tspan class="cls-6" x="67.1" y="0">beauty</tspan></text><path class="cls-2" d="M11.68,66.96c-2.76,.2-5.12-.88-6.81-2.96-2.54-2.93-3.48-5.56-3.96-9.44-.55-4.41-.52-8.52-.06-12.53,.64-5.69,2.63-10.85,2.53-10.59,0,0,2.09-1,2.54-.81,.35,.15,.96,.89,.88,1.27-1.34,6.49-.59,17.68-.59,17.68,.2,3.84,.94,7.32,2.25,10.45l1.27,.29c2.54-3.12,3.71-6.76,4.64-10.69,.98-4.15,2-6.19,3.08-11.38,0,0,3.57-1.1,4.79-.98,.61,.06,2.25,.98,2.25,.98,1.5,1.89,2.67,4.1,3.52,6.64,2.54,4.62,4.26,9.57,5.18,14.84l-.68,1.27h-2.93l-1.56-1.56-5.08-11.13-.98-.29c-.85,2.73-1.55,5.47-2.1,8.2-.55,2.73-1.52,5.4-3.37,7.62-1.16,1.38-2.92,2.99-4.79,3.12Z"/><path class="cls-2" d="M123.68,66.96c-2.76,.2-5.12-.88-6.81-2.96-2.54-2.93-3.48-5.56-3.96-9.44-.55-4.41-.52-8.52-.06-12.53,.64-5.69,2.63-10.85,2.53-10.59,0,0,2.09-1,2.54-.81,.35,.15,.96,.89,.88,1.27-1.34,6.49-.59,17.68-.59,17.68,.2,3.84,.94,7.32,2.25,10.45l1.27,.29c2.54-3.12,3.71-6.76,4.64-10.69,.98-4.15,2-6.19,3.08-11.38,0,0,3.57-1.1,4.79-.98,.61,.06,2.25,.98,2.25,.98,1.5,1.89,2.67,4.1,3.52,6.64,2.54,4.62,4.26,9.57,5.18,14.84l-.68,1.27h-2.93l-1.56-1.56-5.08-11.13-.98-.29c-.85,2.73-1.55,5.47-2.1,8.2-.55,2.73-1.52,5.4-3.37,7.62-1.16,1.38-2.92,2.99-4.79,3.12Z"/><path class="cls-2" d="M56.88,64.3c-.91-1.05-1.95-2.16-3.09-3.3l-.46-.46-2.32-2.74c-1.62,.84-3.11,1.61-4.46,2.29l-.6-.21c-.3-.4-.42-.86-.35-1.37,.94-1.62,1.78-3.26,2.53-4.92-.75-1.08-1.44-2.19-2.06-3.32-.62-1.14-1.47-2.2-2.55-3.18-.84-.7-2.22-1.68-2.74-2.43-.17-.25-.6-.86-.46-1.12,.1-.19,.81-.25,.81-.25,1.69,.3,3.3,.76,4.83,1.37,1.53,.61,3.06,1.22,4.59,1.83,.54-1.22,.77-2.54,.7-3.97l-.46-1.37,1.48-.14,1.05,.35c.3,1.15,.53,2.35,.69,3.6,.15,1.25,.38,2.49,.69,3.71,1.15,.54,2.3,1.1,3.45,1.67,1.15,.57,2.26,1.27,3.34,2.09l.11,.46c-.23,.47-.57,.82-1.02,1.05l-4.25,1.48-.14,.91c.47,1.22,.84,2.47,1.11,3.76,.27,1.29,.52,2.59,.76,3.9-.3,.3-.69,.41-1.16,.32Z"/><path class="cls-2" d="M85.28,72.61l-2.54-1.56c-2.15-3.19-3.65-6.69-4.49-10.5-.85-3.81-1.5-7.6-1.95-11.38v-16.21c.2-4.69,.57-9.24,1.12-13.67,.55-4.43,1.35-8.76,2.39-12.99l2.93-.98,1.86,1.27,.68,5.37c-.85,4.04-1.27,8.27-1.27,12.7,3.38-3.58,6.15-7.32,8.3-11.23s4.49-7.78,7.03-11.62l4.2-1.27,1.27,.68c.85,.85,1.17,2.02,.98,3.52-3,3.97-5.66,8.14-8.01,12.5-2.34,4.36-5.01,8.66-8.01,12.89-.77,1.96,4.8,13.22,7.37,16.8,2.57,3.58,5.03,7.29,7.37,11.13l-3.52,.59-6.45-4.79c-2.34-2.73-4.31-5.58-5.91-8.54-1.6-2.96-2.95-6.04-4.05-9.23,0,0-2.58,10.73-.29,23.19,.81,4.43,1.72,8.71,3.22,12.74l-1.27,.59h-.98Z"/><path class="cls-2" d="M165.57,65.97l-2.83-1.95c-1.95-4.43-2.87-9.28-2.73-14.55,.13-5.27-.36-10.35-1.46-15.23l1.66-.68,2.54,2.93c.2,3.12,1.04,5.76,2.54,7.91l6.05-5.76,7.42-1.56,5.76,1.27,.29,1.95c-4.88,0-8.92,1.89-12.11,5.66-2.15,2.15-3.5,4.64-4.05,7.47-.55,2.83-.93,5.75-1.12,8.74l.29,2.83c-.39,.85-1.14,1.17-2.25,.98Z"/><path class="cls-1" d="M196.15,23.69l-2.77-7.59,1.71-.81,4.58,3.12,.32,2.17c-.92,2.08-2.2,3.12-3.84,3.12Zm4.55,45.99l-2.83-.88c-1.11-2.99-1.97-6.09-2.59-9.28-.62-3.19-1.16-6.38-1.61-9.57l.68-6.64,2.25-7.03,2.83-.59c1.5,1.04,2.02,2.51,1.56,4.39l-.59,13.38,2.83,13.67c-.39,1.3-1.24,2.15-2.54,2.54Z"/></g></g></svg>