<svg xmlns="http://www.w3.org/2000/svg" width="77.024" height="66.651" viewBox="0 0 77.024 66.651">
  <g id="ロゴ" transform="translate(-142.94 -5.499)">
    <path id="パス_12" data-name="パス 12" d="M12.862-26.137v.118l-.118.059c-.059-.118,0-.118.118-.177a.421.421,0,0,1-.354-.177l-.118.177v.059c.177.177-.295.177-.118.472v.118l-.059.059h-.177l-.059.118v.059l-.059.059a8.132,8.132,0,0,0-.649,1.77c-.826,1-.3,1.18-.708,2.124a22.013,22.013,0,0,0-1.77,4.6l.177-.118a6.921,6.921,0,0,1-.295.649A30.347,30.347,0,0,1,6.9-10.62l-.118.059c-.3.826-2.006,5.959-1.829,6.608s.767.767,1.3,1.062l.3-.118a1.42,1.42,0,0,1,.354.472,11.477,11.477,0,0,0,.472-1.3c.236-.118.413-.236.413-.531a4.246,4.246,0,0,1,.649-1.888v.059c.118.59-.413,1.121-.3,1.593a7.359,7.359,0,0,0-.59,1.593l-.118-.118a5.192,5.192,0,0,1-.3.885l.177.118c.413-.118.472-.413.826-.531s.767,0,1.121-.118c.59-.236.531-1.121,1.062-1.416a95.073,95.073,0,0,1,3.009-9.558c.59-1.121,1.062-2.36,1.593-3.54a.958.958,0,0,1,.3-.531C21.712-10.679,28.5-1.239,36.462,4.956a12.846,12.846,0,0,0,2.95,1.18l.059-.059c-.413-.354-1.475-.944-1.652-1.3a29.06,29.06,0,0,0-2.95-2.6,33.221,33.221,0,0,1-4.6-4.956v-.059L29.913-3.3a.625.625,0,0,0-.236-.354C31.034-2.6,31.742-1,33.04.236a49.612,49.612,0,0,0,5.015,4.189c.413.59,1.18.708,1.711,1.18a9.526,9.526,0,0,0,6.018,2.183,12.944,12.944,0,0,1-2.419-.767c-.472,0-1.475-.885-1.652-.885L41.595,5.9l-.177.118c-.059-.059,0-.177-.059-.295-.295.354-.354,0-.767-.177l.118-.3.3-.118A18.09,18.09,0,0,0,47.2,7.375c.177.059.413.118.531,0a.415.415,0,0,1,.295.236l.118.059a12.014,12.014,0,0,1,2.065-.649,2.49,2.49,0,0,1,.177-.708c-.944.059-4.425.531-4.72-.59-.3-.177-.944-.118-1.121-.354l-.354-.059c-.767-.767-2.714-1.534-3.717-2.183-.649-.531-1.18-1.239-1.829-1.711-.413-.236-.531-.826-1-.944-.059-.118-.3-.236-.3-.413-.354-.118-3.481-3.717-4.071-4.248v-.059A36.79,36.79,0,0,1,29.264-9.2L29.2-9.263c-1.239-1.416-4.484-6.195-5.959-7.552-.531-.472-.826-1.121-1.357-1.534a16.533,16.533,0,0,0,7.434-2.419,12.2,12.2,0,0,1,1.475-.885l.059.059a1.479,1.479,0,0,1,.413-.236v-.177h.059l.118.059a2.789,2.789,0,0,0,.708-.413c.059-.059.059-.177.118-.118l.3-.177.059-.118h.059c.118-.118.3-.118.3-.3h.177c.059-.059.177-.118.177-.236h.118a13.27,13.27,0,0,0,2.183-1.947c.118-.59,2.478-3.127,2.773-4.012.177-.531.472-.944.649-1.475.59-1.77,1.239-6.018.472-7.788-.059-.059.177-.236.236-.295a26.369,26.369,0,0,0-1.121-2.714h-.059a9.267,9.267,0,0,0-1.3-2.183h.118l.118.059.118.177v-.059c-1-1.534-2.419-2.36-3.776-3.54-.118-.236-.413-.236-.649-.354a2.778,2.778,0,0,0-1.475-.472.552.552,0,0,0-.3-.413.891.891,0,0,1-1-.354h-.236c-2.655-.944-5.192-.708-7.906-.826l-.118.059a19.71,19.71,0,0,0-3.009.354l-.118.059h-.3l-.059.059c-.826.295-1.711.177-2.537.472-.059.177-.295.177-.413.118a7.22,7.22,0,0,0-1.593.531v.059a1.447,1.447,0,0,0-.944.354H13.1a2.581,2.581,0,0,1-1,.472l-.3.118-.118.236-.236-.059c-.236.118-.767.59-1.062.59l-.708.472-.059.118c-.885.649-1.77,1.3-2.714,1.888a26.348,26.348,0,0,1-2.537,2.655c-2.3,2.6-4.484,5.841-4.425,9.44A8.411,8.411,0,0,0,3.422-24.78c.236.118.826.531,1.062.3v-.059c.472.118.885.649,1.475.472.885-.236-.944-1-1.239-1.18-1.652-1.121-2.065-2.6-2.655-4.366.177-.177-.3-2.242.295-3.186a3.463,3.463,0,0,1,.354-1.18,18.641,18.641,0,0,0,1.18-1.593l-.177-.059.059-.059c.059,0,.118.059.177.118l.118-.177-.059-.118-.118.059-.177-.118a2.435,2.435,0,0,0,.413-.885s0-.118.059-.059c.177-.295.472-.413.708-.649a.447.447,0,0,0-.118.236v.177H4.6l.059.177-.236.059c.118.059.354.177.295.295L4.543-36.7c-.059-.059-.118,0-.059.059.236.177.059.177,0,.354L4.366-36.4H4.307a.259.259,0,0,1,.059.3,3.56,3.56,0,0,1,.472-.472c1.121-1.888,3.422-2.891,4.9-4.366a9.061,9.061,0,0,0,1.77-.649l-.118-.118.059-.059.059.118a2.555,2.555,0,0,0,.3-.059v-.177l-.118.059-.059-.236a6.4,6.4,0,0,1,1.652-.885l-.059.177H12.98c.118.059.236.177.177.295l-.059.059L12.98-42.6h-.118v.059c.118.177,0,.3-.177.354l-.118-.118-.118.3a58.4,58.4,0,0,1,5.487-2.6c.649-.236,1.888-.177,2.655-.354-1.534,2.537-3.363,5.015-4.307,7.788-.649,2.006-1.888,3.776-2.3,5.841.177.059.354-.177.413-.3,1.357-1.593,1.888-3.894,3.245-5.487l.3.236-.118.295a3.242,3.242,0,0,1,.413.531v.059c-.177,0-.3.177-.413.3H17.7a2.5,2.5,0,0,0-.236.708,1.564,1.564,0,0,1-.3.354c-.118.472-.531.826-.59,1.18-.059.236.118.472.059.708.354.236.236,0,.413-.177l.354.177v.059l.177.118c.118.236-.531-.059-.59-.059l.059.118.531.295-.177.177c-.649-.354-.531-.059-.177.354l.531.236.295-.118-.295-.177c.236,0,.177,0,0-.177l.177-.177h.236L18-32.214l.118-.059c-.236-.236-.3-.354,0-.354a.449.449,0,0,1,.531-.059A13.741,13.741,0,0,1,18-31.034l-.059-.118v-.059a6.142,6.142,0,0,0-.944-.354l.236.177-.118.118c-.177-.059-.472-.3-.649-.177l.649.354c.059.236-.059.413-.295.236-.059.118-.236.118,0,.236l.118.059c0,.236-.531-.118-.708-.118l.118.118c-.177,0-.3-.177-.413-.118l-.177.236v.059c.118.059,1.18.59.767.649-.236.059-.649-.3-.944-.354v.059a16.825,16.825,0,0,1-2.183,3.54l-.059-.177c.649-1.121,1.357-2.183,1.947-3.363l.177-.059-.059-.059v-.118c.059-.059.118-.118.118-.177,0-.177.177-.3.236-.472l-.3-.177-.236.472a.263.263,0,0,1-.177.354l.059.059h-.059a3.293,3.293,0,0,1-.472.3l-.059.177-.059-.118a1.03,1.03,0,0,0-.236.708l-.236.3c0,.118-.059.354-.236.354l-.531.767v.118H13.1l-.177.3v.177H12.8l-.059.118c.118,0,0,.177-.059.118a1.094,1.094,0,0,0-.118.413,1.564,1.564,0,0,1,.354.295v.059Zm6.726,5.015a1,1,0,0,1-.413-.059,1.234,1.234,0,0,0-.354.236,11.326,11.326,0,0,1-2.36.531c.059-.354,2.478-5.487,2.714-5.723A37.641,37.641,0,0,1,21-29.441c.118-.708,1.475-2.773,1.829-3.776a43.282,43.282,0,0,0,2.242-3.894,5.036,5.036,0,0,0,.885-2.183,2.245,2.245,0,0,1,.3-.885V-40.3c1.711-2.006-1.593-4.838-3.422-4.72l-.3-.118c1.77,0,3.54-.354,5.369-.177l.059.059,1.18.472.118.059.059-.118-.059-.059.059-.177a1.4,1.4,0,0,0,.708.177l-.059.295h-.059l.059-.177-.059-.059c0,.236-.177.236-.177.177v-.177l-.177.177.413.177h.177a.518.518,0,0,0,.413.059c.826.413,1.829.472,2.6.944.3.177.413.354.767.354l.354.236a3.051,3.051,0,0,1,.767.354l.177.236a3.653,3.653,0,0,1,1,.649c.118.3.413.472.472.767l.472.354v.059a9.438,9.438,0,0,0,.649,1.121h.059l.177.118c.059-.059.118-.118.118-.177l.177.177h.059l.118.118c-.118.59.472,1.357-.059,3.127h.177v.118c-.059,0-.177-.059-.236-.059l-.059.236.118.118.059-.118h.118a3.414,3.414,0,0,1-.413,1.239v.177L38-34.4v-.118l.177.059.059-.059h-.059l-.118-.177v-.118l.059-.118.177.059a.451.451,0,0,1-.118-.3,12.8,12.8,0,0,1-.885,2.065c-.118-.059-.413.472-.472.59a14.606,14.606,0,0,1-1.652,2.124c-.118.059-2.006,2.124-2.36,2.478-.531.118-1.416,1.239-1.947,1.593-.118,0-2.419,1.652-2.537,1.77-.826.3-3.54,2.006-4.13,1.947l-.59.3A15.7,15.7,0,0,1,19.588-21.122ZM5.015-40.474v.354L4.838-40l-.118.3.059.059a.728.728,0,0,0,.472-.236l.177.118a4.506,4.506,0,0,0-.531.531H4.838C4.779-39.117,3.6-37.7,3.3-37.229l-.118.059L2.95-36.7l-.295.236c-.177.826-.59,1.593-.826,2.419H1.77v.649l-.118-.177c-.3.354-.177,1.3-.59,1.593,0-.177-.059-.295-.059-.472l.059-.059.118-.3A.536.536,0,0,1,1-33.217c0-.118.059-.649.059-.236.472-.236.236-1.121.531-1.475a9.4,9.4,0,0,1,.885-1.711c.118-.236.177-.649.531-.649a1.317,1.317,0,0,1,.354-.767h.059a.606.606,0,0,1,.59-.649,1.058,1.058,0,0,1,.3-.413l-.118-.177C2.6-37.76.531-33.866.531-31.506a10.79,10.79,0,0,1,.118,1.947c-.354-.177-.295-.354-.177-.708a3.536,3.536,0,0,1-.118-2.065c-.531-2.183,4.13-8.378,6.077-9.617C6.313-41.536,5.369-40.828,5.015-40.474Zm22.007-8.142a2.04,2.04,0,0,1,1.18.118c1.534-.059,3.658,1,5.251,1.947l-.236.059-.059-.059-.236-.059v.059l.177.236-.118.118-.354-.059c-.118,0,.059-.177.059-.236h-.177l-.118.059-.649-.236-.059-.177-.236.059a4.421,4.421,0,0,0-.944-.295l-.177-.177a.748.748,0,0,1-.354-.059l.059-.177a.832.832,0,0,1-.826-.059c-.059,0,0-.059,0-.059v-.118h-.118l-.059.177H28.91l-.118-.118.118-.118a4.422,4.422,0,0,1-.944-.295l.236-.059.059.059.177.059.236-.118c.059,0,.3,0,.3.059H28.91l.059.059.3.118a.627.627,0,0,1,.472.059,5.873,5.873,0,0,1,1.534.531,1.723,1.723,0,0,1,.531.118v.059c.236-.059.354.177.531.3l.236.059.059-.059c-.767-.944-5.9-1.711-6.018-1.829C26.727-48.852,26.9-48.734,27.022-48.616ZM49.206,6.9a23.056,23.056,0,0,0-2.891.177,2.42,2.42,0,0,0-1.3-.413,1.5,1.5,0,0,0-.767-.295,11.373,11.373,0,0,0-2.242-1.121c-.826-.3-1.416-1.062-2.183-1.416L40,3.54c.3.236,1.534,1.239,1.711,1.121l.236.118.177.236.354.177a.259.259,0,0,0,.295.059l.295.059.472.354a17.367,17.367,0,0,0,2.537,1,9.135,9.135,0,0,1,1.3.059,2.712,2.712,0,0,0,1.534,0c.118-.118.531-.059.649-.118C49.5,6.785,49.324,6.844,49.206,6.9Zm-35.4-31.447h-.059l.649.413H14.16l.177.118a3.609,3.609,0,0,1-.708.3l-.3.59h-.059c-.177,0-.177,0,0,.059v.118c-.118,0-.236-.118-.354-.177a1.846,1.846,0,0,0,.3-.59l-.3-.059-.059-.059-.413-.177c-.118-.354.59-.118.708-.059a2.391,2.391,0,0,0-.531-.3c-.118-.177.413.177.295-.059-.413-.177-.059-.3.177-.531l.354.118-.295-.236a.254.254,0,0,0,.236-.236l.59.236a2.119,2.119,0,0,1-.59-.413c.236-.059.767.236.944.354l.118.236C14.219-24.426,14.514-24.131,13.806-24.544ZM9.263-43.955c.177-.472,1-.826,1.416-1.121a23.647,23.647,0,0,1,11.033-3.54l-.236.118C17.936-48.439,12.154-46.138,9.263-43.955ZM39.117-32.627c.177.177.118.236-.059.354.118.649-1.18,3.068-1.652,3.54a10.225,10.225,0,0,1-1.416,1.888c.177-.472.59-.767.649-1.3a14.056,14.056,0,0,0,2.242-4.13C38.94-32.391,39-32.568,39.117-32.627ZM28.851-8.142c-1.3-1.534-5.723-6.313-6.549-8.024l.177.059c.885.885,6.372,7.67,6.431,7.729ZM38.114,2.3c-1.475-1.77-3.3-3.422-4.9-5.074l.236-.118A11.1,11.1,0,0,0,35.164-1a5.649,5.649,0,0,0,1.357,1.3c.118.413,2.124,1.947,2.183,2.124a.216.216,0,0,0-.118.295C38.35,2.6,38.173,2.6,38.114,2.3ZM17.7-34.574l.236.118-.059-.236L18-34.751v-.118h.118l.236-.177c0-.118.118-.177.177-.236l.177.059a1.094,1.094,0,0,0,.118.413.636.636,0,0,0-.472-.118,1.829,1.829,0,0,0,.767.354c-.118.059-.177.236-.236.354l-.708-.354-.059.118.177.118c-.118,0-.059.059,0,.118a2.1,2.1,0,0,0,.531.236l.059.059v.177l-.177-.118c0,.177-.472-.177-.59-.177L18-33.984a5.9,5.9,0,0,0,.826.472v.118a9.547,9.547,0,0,1-1.062-.59l.059-.118c-.059-.059,0-.118.059-.177L17.7-34.4Zm4.071-14.042c.236-.177.885-.118,1.18-.118l-.059.177-.059.059a2.341,2.341,0,0,1,1.416.236l-.177.059-.059.118a1.3,1.3,0,0,1-.472-.059l-.059-.118-.059.118a9.486,9.486,0,0,0-1.829.059c0-.236.472-.354.649-.3l.059.059.059-.236A.7.7,0,0,1,21.771-48.616ZM40.179,5.251A4.465,4.465,0,0,1,39,4.484a.743.743,0,0,0,.177-.767l1.239,1ZM9.617-12.921c-.059-.236.118-.3-.118-.472a37.273,37.273,0,0,1,1.475-3.54h.236A25.805,25.805,0,0,0,9.617-12.921ZM31.683-4.012c1.121,1.239,2.183,2.6,3.3,3.835l-.236-.177A16.836,16.836,0,0,1,31.683-4.012ZM28.32-4.189c-.354-.354-.649-.826-1.062-1.18a1.42,1.42,0,0,1,.472.354l.059-.059-.531-.708H27.14a.749.749,0,0,0-.236-.413l.118.059c0,.059,0,.118.059.118.059.177.413.354.413.413A1.64,1.64,0,0,1,28.2-4.9c.118,0,.354.295.472.413l.059.118h.059c.177.118.177.3.3.472C28.851-4.13,28.615-4.071,28.32-4.189Zm-10.5-29.028a.355.355,0,0,1-.236.059l-.472-.413v-.3l.059-.059a9.043,9.043,0,0,1,1.593.649v.059c-.177-.059-1-.413-1.121-.413a3.913,3.913,0,0,0,1.121.531l-.059.236ZM6.726-9.971l.236.118c-.413.885-.649,1.829-1.121,2.655C6.136-8.083,6.372-9.086,6.726-9.971ZM16.815-29.559l-.118-.118c0-.118.118-.177.177-.236-.118-.118,0-.177.118-.177-.059-.059-.118-.118-.059-.177l.3.118h.118l.295.236a1.479,1.479,0,0,0-.236.413l-.059.118h-.059l-.3-.118-.118-.118ZM19.883-45.43c-.472.118-2.773.708-2.95.826l.059-.177.177.059a.62.62,0,0,1,.531-.3l.059-.059h.177a17.129,17.129,0,0,1,2.006-.413Zm6.844-.59.118.177h.531l-.059.118.118.177.118.059a5.357,5.357,0,0,1-1.357-.177C26.491-45.725,26.55-45.843,26.727-46.02Zm-3.363.472a1,1,0,0,0-.413-.059l-.118.177h-.767v-.118a5.67,5.67,0,0,1,2.006-.177Zm-4.543,12.98L19-32.45a6.581,6.581,0,0,0-.767,1.416c-.118-.118,0,.236-.118.118L18-30.975ZM10.738-18.349c.236.059.177.3.059.472v.059l-.177-.059.059.3-.177.413-.236-.177A3.13,3.13,0,0,0,10.738-18.349ZM7.375-42.6l-.413.295c.413-.413,1.416-1.416,1.711-1.357l-.413.413C7.788-43.07,7.67-42.716,7.375-42.6ZM31.211-5.074a.839.839,0,0,0,.354-.118,1.757,1.757,0,0,1,.413.649l-.236.118C31.565-4.661,31.447-4.956,31.211-5.074ZM7.67-39.825l-.177-.059-.118.059.118.177c-.236.118-.413.413-.649.472-.059-.118-.059-.236.118-.177,0-.177.472-.59.59-.708C7.611-40,7.847-39.884,7.67-39.825Zm3.658-1.829-.118-.118h-.118l.118.177c-.118.118-.531.354-.708.177a3.345,3.345,0,0,1,.767-.472l.118.118ZM24.78-48.321l.118.059v-.059h.118l.118.059h-.059l.236.118c-.236.059-.59.236-.826,0a.589.589,0,0,0,.236-.3ZM32.45-4.189l.118.3-.118.059c.059.236.295.354.354.59-.118-.118-.3-.236-.3-.354l-.472-.472.295-.177ZM20.178-37.642a8.262,8.262,0,0,1-.59.944H19.47l.118-.3a2.964,2.964,0,0,0,.472-.708h.118Zm10.207-7.552.236.059.059.059a2.466,2.466,0,0,1,.59.236h.059l.236.118v.059c-.177-.177-.472,0-.767-.295l-.059.118-.354-.236ZM3.54-35.164l-.236.059c.236.118-.059,0-.118,0a.918.918,0,0,1,.354-.472l.177.118Zm22.479-13.1v-.118l.118.059c.177-.118.177-.118.354,0h-.177a.748.748,0,0,0,.059.354.748.748,0,0,0-.354-.059l-.177-.118ZM24.957-21.181,24.9-21.24l-.059.118a3.482,3.482,0,0,0-.826.118v-.059A4.915,4.915,0,0,1,24.9-21.3c0-.177.118,0,.177.059Zm12.862-9.263-.059.236c-.118.236-.354.413-.354.708-.118.118-.3.531-.472.472A11.446,11.446,0,0,0,37.819-30.444ZM12.154-20.886l-.059-.059v.177l-.177.3-.177-.059a2.1,2.1,0,0,0,.236-.531c.059,0,.177.059.236.059Zm1.652-4.838a1.343,1.343,0,0,1,.531.472C14.278-25.252,13.275-25.724,13.806-25.724ZM39-36.757a.757.757,0,0,0-.236.59h-.177a1,1,0,0,0,.059-.413l.177-.177c-.059,0-.118,0-.118-.059A.442.442,0,0,1,39-36.757Zm-9.027-8.319c-.118-.118-.767-.177-.531-.295h.413l.118-.059-.118.118C29.972-45.253,30.208-45.135,29.972-45.076ZM35.99.708c-.3-.118-.472-.059-.649-.472-.059-.059-.118-.118-.118-.177A4.062,4.062,0,0,0,35.99.708Zm-15.1-48.97.177-.059a1.479,1.479,0,0,1,.413.236,2.007,2.007,0,0,0-.59.059ZM34.279-27.789l-.118-.236v-.059h.118V-28.2c.059,0,.118,0,.118-.059l.177.177ZM27.73-47.967c-.059-.059-.177-.118-.118-.177l-.3-.118.118-.059.354.118.118.118v.118l.118.059-.118.059v-.118ZM18.88-34.81,19-35.046h.059l.236.118-.059.177s-.354-.059-.177.059l-.236-.118ZM17.287-30.8a1.389,1.389,0,0,1,.59.3c.059-.059.118.059.059.118a1.126,1.126,0,0,0-.472-.177l-.177-.177H17.4Zm9.44-17.287.118-.118.118.059v.118h.3l.059.059c-.236,0-.59.059-.767-.059v-.059Zm8.85,18.762h-.236l-.177.177V-29.2l.295-.354h.118l.118.059ZM17.11-30.5h.177l.177.177c.059,0,.118,0,.118.059l-.059.059.177.118a2.1,2.1,0,0,0-.531-.236C17.11-30.385,17.051-30.444,17.11-30.5Zm-.295.944.413.3v.059a3.162,3.162,0,0,0-.649-.3A.355.355,0,0,1,16.815-29.559ZM8.142-40.238l-.059-.236a3.4,3.4,0,0,0,.59-.118ZM34.515-45.9a3.952,3.952,0,0,1-1.062-.649A10.263,10.263,0,0,0,34.515-45.9ZM15.4-18.408v-.059a1.389,1.389,0,0,1,.472.118c.118.177.413.236.531.413A3.13,3.13,0,0,0,15.4-18.408ZM29.028-45.135v.177h-.177l-.118-.177v.118l-.059-.118.059-.059ZM5.664-40c-.059.059-.118,0-.059-.059l-.059-.118.177-.118H5.9ZM11.5-19.883l.118.059-.177.354-.118-.059Zm.354,1.475-.177-.059L11.8-18.7l.177.059Zm-.236-1.829.177.059-.118.236L11.5-20Zm-.649,1.416.177.059-.059.177h-.236Zm11.682,8.85c-.059-.059-.059-.118-.118-.177l.649.531h-.059C22.951-9.676,22.833-9.912,22.656-9.971Zm-4.012-5.664a2.392,2.392,0,0,0-.3-.531C18.467-16.048,21.24-11.033,18.644-15.635Zm7.139-32.686c-.059.059-.177.118-.177.236h-.177l.118-.118v-.118ZM36.757-28.733l.177-.236a.357.357,0,0,1-.177.354,2.555,2.555,0,0,1-.059.3Zm-11.8-20.06a.376.376,0,0,1,.354,0l-.3.118C24.957-48.675,24.957-48.734,24.957-48.793Zm.767,0-.059.118h-.236v-.059A.442.442,0,0,1,25.724-48.793Zm-1.357,0a1,1,0,0,1,.413.059.748.748,0,0,0-.354.059l-.118-.059Zm8.26,4.484v.118l-.3-.118-.059-.059h.177l.059.059ZM30.09-45.371h.118c.059,0,.177,0,.177.118h-.236Zm7.847,11.8c-.059.118-.177.118-.295.059C37.7-33.63,37.819-33.63,37.937-33.571ZM15.753-19.116v.295h-.177ZM13.806-43.129c.118-.059.177,0,.236.118C13.924-42.952,13.865-43.011,13.806-43.129ZM11.328-19.175h-.177l.118-.177.118.059Zm22.6-8.319-.059-.059.177-.177.059.118ZM11.269-18.939,11.092-19l.059-.118.177.059Zm7.906-16.225-.059-.059.118-.236c.059,0,.118,0,.118-.059ZM12.98-26.55a.355.355,0,0,1-.059.236C12.8-26.491,12.8-26.491,12.98-26.55Zm2.36-17.641c-.059.118-.118.118-.236.118.118-.059.177-.059.177-.236h.059ZM1.3-31.919l.118-.177a.217.217,0,0,1,.059.177Zm19.057-6.313a.532.532,0,0,1-.059.295L20.237-38Zm7.375-9.735v.118l-.177-.059C27.494-47.967,27.73-47.967,27.73-47.967ZM13.275-24.308l-.354-.118.3.177ZM26.432-48.144c-.118-.118.059-.059.177-.059A.291.291,0,0,1,26.432-48.144ZM10.561-41.3c0,.059-.118.059-.118,0v-.118H10.5Zm.826,24.013a.881.881,0,0,1,.177-.413Zm1.888-25.252v-.177c.059,0,.059,0,.118.059Zm24.6,8.378.059-.118c.059,0,.118.059.059.118ZM11.033-18.408l-.059.059-.118-.118A.217.217,0,0,1,11.033-18.408Zm.649.531c-.059-.059-.059-.059-.059-.118l.118-.118A.355.355,0,0,0,11.682-17.877Zm.826-6.018c-.059,0-.059,0-.118-.059h.059l.177.118C12.567-23.836,12.567-23.836,12.508-23.9ZM29.146-44.958l.059-.059c0,.059-.059.118-.059.177ZM18.113-31.742H18l-.118-.059.177.118ZM30.5-47.318c-.059,0-.118,0-.118.059H30.5ZM18.939-32.8c0-.059,0-.059.059-.118v.118ZM11.8-20.355h.059v.059C11.8-20.3,11.8-20.3,11.8-20.355ZM4.956-37.347a.594.594,0,0,0,.177.059Zm15.753-8.2v.059l-.118-.059ZM17.228-29.972a.447.447,0,0,1-.236-.118Zm3.3-15.576h.059v.059ZM12.1-18.939V-19h.059Zm5.664-11.21c.059,0-.059.059-.059.059ZM21.535-10.62C21.417-10.974,21.535-10.679,21.535-10.62ZM45.9,7.847c-.059,0-.059-.059-.118-.059C45.843,7.788,45.843,7.847,45.9,7.847Z" transform="translate(143 55)" fill="#fff"/>
    <path id="パス_11" data-name="パス 11" d="M33.06-16.994l.116.116.174.058.174.174-.29.232-.29-.116.29.232-.174.058a.935.935,0,0,1,.174.522c-.058,0-.174-.058-.232-.058a.7.7,0,0,1-.812-.116l1.218-1.682a5.458,5.458,0,0,0,1.276.7l-.348-.348.174-.116c.232.116.638.464.928.406l-.928-.638c-.116-.406.058-.522.406-.29.058-.116.232-.116.116-.232l-.116-.116-.174-.058c.058-.29.87.174,1.044.232l-.174-.174c.232.058.406.29.638.174l.174-.29c-.116-.116-1.682-.928-1.1-.986.464-.058.986.406,1.392.58,0-.058.058-.058.058-.116.812-1.392,1.392-4,2.2-5.1-.174-.174.464.058.29.174a26.957,26.957,0,0,1-2.146,4.988l-.174.058v.058c0,.058.058.058.058,0l-.058.174c-.058,0-.406.754-.522.87l.464.232c.174-.232.464-1.044.58-1.044l-.058-.116c.232.116.522-.29.754-.406l.116-.29.058.116c.522-.522.174-1.1.58-1.508.058-.232,0-.522.29-.58l.174-.29v-.058l.232-.348v-.058l.174-.348-.058-.116V-22.5l.116-.058.174-.464-.058-.058v-.174l.116-.058.058-.174c-.116-.116-.174-.174.058-.174l.058-.174a.28.28,0,0,1,0-.406c-.058-.058-.7-.29-.638-.406a1.471,1.471,0,0,1,.7.116c-.116-.116-.174-.232.058-.29v-.058c-.348-.174.174-.348-.058-.638l-.058-.174.058-.058c.058,0,.174-.058.232-.058v-.232l.058.116-.058-.174.058-.058a13.272,13.272,0,0,0,.058-2.61,2.877,2.877,0,0,0,.174-.754,3.415,3.415,0,0,1,.58,1.972c.812-3.828.928-7.888-1.044-11.368a8.211,8.211,0,0,0-2.726-3.248c-.522-.348-1.1-.522-1.624-.812a5.556,5.556,0,0,1-1.45-1.16,7.556,7.556,0,0,1,.87.58v-.116c-.348-.7-1.74-1.334-2.436-1.682v-.058l.116.058h.058c-1.972-1.566-4.7-1.74-7.076-1.914-6.67-.464-12.76,3.306-17.516,7.656C7.308-38.454,6.5-37,5.336-35.844A11.6,11.6,0,0,0,3.712-33.7c-.7.464-2.146,3.828-2.494,4.756C.754-27.666.7-26.39.29-25.114A20.022,20.022,0,0,1,.58-21.4l.232.058L.928-21.4l.232-.406c0,.29.116,1.276.406,1.392.522.29,2.378-.116,2.9-.232.058-.116-.058-.522-.058-.7a11.187,11.187,0,0,1-.058-2.784,15.157,15.157,0,0,1,1.1-3.828c.058-.174.348-.522.116-.7-.116-.058-.754,1.276-.87,1.566-.058.174-.116.406-.29.464a.125.125,0,0,1-.116-.116c.058-.348.348-.754.406-1.16l-.058.058A38.581,38.581,0,0,1,6.554-31.2a11.17,11.17,0,0,1,1.218-2.32c0-.116,0-.29.116-.29L8-33.872l.232-.29-.174.116a3.188,3.188,0,0,1,.406-.522v.058c2.378-3.074,5.394-4.814,8.526-6.844l-.116.058a11.745,11.745,0,0,0,1.74-1.218h.116a16.267,16.267,0,0,1,2.552-.87l-.058-.232c-.348.116-2.32.7-2.494.812h-.058A9.6,9.6,0,0,1,16.82-41.76l-.348.058a18.957,18.957,0,0,1,3.074-1.508,6.258,6.258,0,0,1,1.566-.58.349.349,0,0,0,.232-.058,14.318,14.318,0,0,1,4.176-.7,16.387,16.387,0,0,0,1.682.116,4.96,4.96,0,0,1-.928,0,14.77,14.77,0,0,0-4.756.7l.116.116a.824.824,0,0,1,.348.116,17.72,17.72,0,0,1,4.234-.58c.58,0,1.16-.174,1.74-.174A10.9,10.9,0,0,1,32.77-42.92l-.522-.29a9.792,9.792,0,0,1,2.2,1.1l.058-.058a11.974,11.974,0,0,1,1.8,1.624c2.378,8.236-4.93,23.9-11.716,29.812v.174l-.29.232a1.075,1.075,0,0,0-.406.116C22.156-8.7,20.242-7.366,18.56-5.8a14.5,14.5,0,0,0-2.378,1.45c-1.276.812-2.668,1.392-4,2.088l1.392-.58C11.774-1.74,6.9-.348,4.988-1.16,3.48-1.8,2.726-5.974,2.958-7.54c0-.174.058-.348.058-.522l.174-.406v-.348l.116-.174H3.248L3.422-9.4H3.48a1.287,1.287,0,0,1,.29-.638,1.107,1.107,0,0,1,.174-.464c.174-.058.174-.464.348-.638.348-.232.754-1.566,1.276-1.972a2.035,2.035,0,0,1,.29-.464,1.04,1.04,0,0,0,.406-.29c.522-.522.754-1.276,1.392-1.74A18.051,18.051,0,0,0,9.28-16.936H9.164a1.04,1.04,0,0,1,.406-.29l.87-.87c.058.058.058-.116.116-.058.174-.058.29-.232.464-.348l-.058.116A17.075,17.075,0,0,1,9.8-13.978l-.116.058A34.008,34.008,0,0,0,8.41-8.7c.174.58.812.754,1.334.928l.29-.116.348.464.348-1.044c.406-.058.58-1.334.986-2.03v.058l-.058.116c.116.406-.348.928-.174,1.276a3.128,3.128,0,0,0-.522,1.276l-.116-.116-.174.7.174.116c.406-.058.406-.29.7-.406a7.4,7.4,0,0,0,1.1-.058c.522-.174.464-.87.928-1.1.406-1.276.7-2.726,1.044-4a50.489,50.489,0,0,1,2.668-7.714c.058-.116.232-.29.174-.464a2.207,2.207,0,0,0,.522-.754v-.058c1.8-.464,3.48-.928,5.278-1.276-.348,0-.7.058-1.044.058a19.715,19.715,0,0,1,2.668-.348l.058-.058v-.174l-2.262.174.116-.174a29.5,29.5,0,0,1,3.19-.232L26.1-23.9h-.348v-.232h.986V-24.3a17.509,17.509,0,0,0-3.48-.174,16.533,16.533,0,0,1,1.682-.174,12.2,12.2,0,0,0-3.248.116v-.058h.116l.058-.116h.058l.058-.116h.174l-.058-.058c-.58.058-2.726.464-2.958.464a10.279,10.279,0,0,1,.87-1.8A29.366,29.366,0,0,1,21.4-28.884a19.743,19.743,0,0,1,1.334-3.074c0-.058,0-.116.058-.116a1.105,1.105,0,0,1,.29-.58,6.208,6.208,0,0,0,.754-1.8,4.018,4.018,0,0,0,1.044-2.494c0-.58.406-1.044.464-1.624.174-1.566-2.552-2.668-3.6-3.48l-.29.058c-.464-.522-.986-.29-1.45.058a3.337,3.337,0,0,0-.29,1.508c-1.276,2.668-2.03,5.51-3.248,8.178a70.094,70.094,0,0,0-3.654,8.642l-.174.116a3.354,3.354,0,0,0-.29.812,2.271,2.271,0,0,0-.464.58,15.319,15.319,0,0,0-2.668,1.566l-.058.174-.174.116H8.816l-.928.638v.116c-.29.406-1.218.7-1.682,1.044v.232l-.232-.058-.87.812v.116l-.464.348-.058.174-.116.058c-.116.174-.29.29-.348.522l-.174.058-.174.174v.232H3.6c-.174.174-.29.58-.58.7l-.348.522v.116a11.264,11.264,0,0,1-1.334,1.914A17.682,17.682,0,0,0,.058-9.222C0-8.7-.058-8-.174-7.482l-.058.058c0,2.32.406,2.03.638,3.828v.116a5.441,5.441,0,0,0,.522.7C1.914-.58,4.988.464,7.192.928c.638.116,1.334,0,1.972.058a9.4,9.4,0,0,1-1.276.058A23.877,23.877,0,0,0,15.776.29,1.786,1.786,0,0,1,16.53.116,25.182,25.182,0,0,1,20.184-.928c3.538-1.392,8.062-5.22,10.788-8.12l.232-.116,1.566-2.03c-.7.7-1.16,1.45-2.32,1.334l-.464.406V-9.57l.29-.348h-.058l.174-.232v-.058l.7-.754.174.116-.232.348c.058,0,.116,0,.116.058l.116-.058.29.174v-.058a6.208,6.208,0,0,1,.812-.928,1.105,1.105,0,0,0,.58-.29h.174c.232-.638,1.856-2.2,1.972-2.668.058-.29-.116-.7,0-.986-.464-.406-.406-.116-.58.174a1.844,1.844,0,0,1-.7-.638c-.174-.232.638.174.754.174l-.058-.174-.754-.522.29-.116c.058.058.754.464.7.232,0-.058-.348-.58-.406-.7l-.754-.406a.625.625,0,0,1-.464.116,1.166,1.166,0,0,0,.464.232c.174.174-.348-.058-.232.058l-.232-.174Zm-21.286-22.1-.29.058c-.7.986-2.088,1.972-3.19,3.538a.319.319,0,0,1-.29.174l-.058.29-.116.116a.249.249,0,0,0-.232.232,31.516,31.516,0,0,0-3.712,6.9v.058H3.77l-.058-.116a6.672,6.672,0,0,1,.7-1.856,23.926,23.926,0,0,1,4.06-6.67c.7-.87,1.566-1.566,2.262-2.378l.232-.116A33.413,33.413,0,0,1,13.8-40.89l.116.116C13.108-40.31,12.528-39.556,11.774-39.092Zm2.088,16.066.232-.174v-.29c.348-.522.406-1.276.7-1.74a.935.935,0,0,0,.232-.406,10.678,10.678,0,0,0,.522-1.45c0-.116.174-.174.232-.232v-.232l.058-.116c.116,0,.232-.116.174-.232.812-2.088,2.088-3.944,3.016-6.032H19.2l.058.058A14.394,14.394,0,0,1,18.1-31.32c.058.348-.348.928-.464,1.218-.29.754-.87,1.392-1.16,2.146a47.813,47.813,0,0,1-2.03,4.7A2.424,2.424,0,0,0,13.862-23.026Zm25.4-4.582a2.911,2.911,0,0,0-.7-.116s-.174,0-.174.058a1.606,1.606,0,0,0,.522.058v.058l.348.058c.406.406-.754.29-.87.29a4.272,4.272,0,0,0,.812.232c.116.116-.232.058-.232.058H38.8l.058.058h0c.058,0,.348.116.348.232l-.348.522a2.35,2.35,0,0,1-.638,0,2.827,2.827,0,0,1,.638.232c-.232,0-.348.116-.29.348a2.114,2.114,0,0,0-.87-.116,1.606,1.606,0,0,0,.754.174l.232.116a1.95,1.95,0,0,1-1.508-.174l-.058-.058.174-.116.232-.7H37.7l-.174-.116c.29-.928.058-1.218.406-.87a2.215,2.215,0,0,1-.348-.928h.174c.29,0,.058-.058-.058-.116h-.116v-.058l.348-.058c.29.116.29.232.522.348.116.174-.232.174.058.348a2.119,2.119,0,0,1,.87.174Zm-5.916,14.5c-.116-.058-.232-.058-.348-.174l.058.29-.116.058-.058.174c-.058,0-.174-.058-.232-.058l-.638.406c-.29-.29-1.1-.928-1.392-1.16l.116-.116c.058,0,.87.7.7.348a5.883,5.883,0,0,0,.754.522h.116c-.348-.406-1.1-.638-1.276-1.1a.443.443,0,0,1,.29.116c-.058-.116,0-.174.116-.232v-.058l1.218.87.116-.116-.232-.232c.174.058.232-.058.058-.174l-.754-.464c-.058-.116-.464-.464-.348-.464l.522.348c.058-.232.7.406.812.464L33-13.92c-.464-.464-.986-.754-1.45-1.218a5.068,5.068,0,0,1,1.8,1.276l-.174.116.058.174-.116.116.29.174Zm-1.74.928a3.04,3.04,0,0,1-.58.638h-.058l-.116.116a1.166,1.166,0,0,1-.232.754l-.29.232a1.4,1.4,0,0,0-.464.348,2.172,2.172,0,0,1-.754-.7l.116-.116.174.232c.464-.754,1.218-1.334,1.74-2.088a3.5,3.5,0,0,1,.464.464Zm-15.892-12.3a2.288,2.288,0,0,1-.348.87l-.232.058.116-.116a5.017,5.017,0,0,1,.406-.986v-.058a75.735,75.735,0,0,1,4.176-8.41C19.778-32.828,15.718-24.476,15.718-24.476ZM4.408-27.9l-.116.116a19.356,19.356,0,0,1,1.914-4.176C6.5-32.828,7.83-34.1,8-34.742a6.478,6.478,0,0,0,1.1-1.392c.522-.638,1.16-1.16,1.74-1.74h.116c-.406.812-1.624,1.566-2.146,2.436-.348.58-.87,1.044-1.218,1.566A23.706,23.706,0,0,0,4.408-27.9ZM33.35-14.906c.406-.464.928.754.986,1.044a.736.736,0,0,1-.348.058c-.348-.232-2.146-1.334-2.262-1.508l.058-.058a15.516,15.516,0,0,0,1.624,1.044l.058-.058a8,8,0,0,1-1.624-1.1l.174-.232A10.215,10.215,0,0,0,33.35-14.906ZM1.856-5.8v-.464A1.765,1.765,0,0,1,1.8-7.482a13.346,13.346,0,0,1,2.03-5.278l.464-.58A12.782,12.782,0,0,0,1.914-5.8ZM17.11-31.262v-.058c.638-.812.754-2.03,1.45-2.726a29.791,29.791,0,0,1-2.552,5.1ZM13.456-19.778l.232-.116a2.954,2.954,0,0,1-.406.986c-.348.986-.7,2.2-1.1,3.132,0-.058-.116-.348-.116-.406C12.644-17.284,12.876-18.618,13.456-19.778Zm21.46.232.174.174-.058.116a.154.154,0,0,0-.174.174c.174.116-.058.174-.174.174h-.116c.174.116.29.232.116.29a1.166,1.166,0,0,0-.464-.232l.116-.174.348-.58.174.116.058-.058-.232-.116.116-.174a.935.935,0,0,0,.406.232C35.148-19.488,34.974-19.546,34.916-19.546Zm-25.23,6.09.232.116a9.358,9.358,0,0,1-.87,2.088C9.28-11.948,9.512-12.7,9.686-13.456Zm12.47,10.5a51.143,51.143,0,0,0,4.988-3.77c.058-.174.812-.7.986-.928l.116-.058A37.358,37.358,0,0,1,22.156-2.958ZM38.164-24.882a5.853,5.853,0,0,1-.87-.406C37.642-25.23,38.8-25.056,38.164-24.882ZM19.778-36.192a3.624,3.624,0,0,1-.58,1.276l-.116-.058A13.033,13.033,0,0,1,19.778-36.192ZM28.362-7.83a1.166,1.166,0,0,1,.232-.464l.232-.058.232-.174a2.652,2.652,0,0,1,.928-.87ZM3.828-26.332a1.169,1.169,0,0,0-.174.638,1.843,1.843,0,0,0-.174.522,4.3,4.3,0,0,1,.29-1.45h.116Zm5.278,8.99.116-.174c.638-.406,1.16-.928,1.8-1.334.058,0,.116,0,.116-.058l-.058.174a11.863,11.863,0,0,0-2.03,1.45H8.99ZM34.22-18.386l-.174-.174.116-.174c.058.058.522.232.406.406ZM7.424-33.06l-.29.464H7.018l.232-.464.174-.116Zm5.1,13.34.116-.058v-.058l.232-.116-.174.406-.116-.058-.116.058Zm6.728-14.558c.058-.116.29-.58.29-.348l-.116.348-.116.058ZM34.22-17.98c-.116-.058-.29-.116-.348-.232l.058-.116h.058l.29.232H34.1Zm5.394-6.438c.232.174.348.232,0,.348ZM3.48-26.912a.987.987,0,0,1,.058-.406l.116-.058-.116.522Zm10.208,6.5.232-.058-.058.174c-.116,0-.174.058-.29.116ZM39.614-24.65l.058-.174.058-.058C39.962-24.708,39.788-24.708,39.614-24.65ZM12.7-19.43l-.116.232-.116-.116A.44.44,0,0,1,12.7-19.43Zm25.636-7.482a.86.86,0,0,0,.406.058C38.57-26.854,38.454-26.912,38.338-26.912Zm-3.77,8a.44.44,0,0,1-.232-.116ZM37.99-27.26c0-.058,0-.058-.058-.116C37.99-27.318,37.99-27.318,37.99-27.26ZM32.306-12.818a.057.057,0,0,0,.058.058Z" transform="translate(178 71)" fill="#fff"/>
  </g>
</svg>
