<svg xmlns="http://www.w3.org/2000/svg" width="315.602" height="173.016" viewBox="0 0 315.602 173.016">
  <g id="メインタイトル" transform="translate(-526.785 -203.658)">
    <path id="パス_17" data-name="パス 17" d="M38.8-78.854v.356l-.356.178c-.178-.356,0-.356.356-.534a1.269,1.269,0,0,1-1.068-.534l-.356.534v.178c.534.534-.89.534-.356,1.424v.356l-.178.178h-.534l-.178.356v.178l-.178.178c-.356,1.068-2.136,4.45-1.958,5.34-2.492,3.026-.89,3.56-2.136,6.408-1.424,1.424-4.628,11.214-5.34,13.884l.534-.356a20.881,20.881,0,0,1-.89,1.958,91.556,91.556,0,0,1-5.34,16.732l-.356.178c-.89,2.492-6.052,17.978-5.518,19.936s2.314,2.314,3.916,3.2l.89-.356a4.284,4.284,0,0,1,1.068,1.424A34.625,34.625,0,0,0,22.25-11.57c.712-.356,1.246-.712,1.246-1.6,0-2.136,1.068-3.916,1.958-5.7v.178c.356,1.78-1.246,3.382-.89,4.806-.534.534-1.6,4.094-1.78,4.806l-.356-.356a15.664,15.664,0,0,1-.89,2.67l.534.356c1.246-.356,1.424-1.246,2.492-1.6s2.314,0,3.382-.356c1.78-.712,1.6-3.382,3.2-4.272,1.068-4.272,7.12-25.276,9.078-28.836,1.78-3.382,3.2-7.12,4.806-10.68a2.89,2.89,0,0,1,.89-1.6C65.5-32.218,85.974-3.738,110,14.952c2.492,1.958,6.052,2.314,8.9,3.56l.178-.178c-1.246-1.068-4.45-2.848-4.984-3.916-1.424-1.958-7.476-6.586-8.9-7.832A100.226,100.226,0,0,1,91.314-8.366v-.178L90.246-9.968a1.886,1.886,0,0,0-.712-1.068c4.094,3.2,6.23,8.01,10.146,11.748,1.6,1.78,13.884,12.282,15.13,12.638,1.246,1.78,3.56,2.136,5.162,3.56,4.806,4.45,11.57,6.23,18.156,6.586a39.052,39.052,0,0,1-7.3-2.314c-1.424,0-4.45-2.67-4.984-2.67l-.356-.712-.534.356c-.178-.178,0-.534-.178-.89-.89,1.068-1.068,0-2.314-.534l.356-.89.89-.356c7.654,3.738,9.79,5.162,18.69,6.764.534.178,1.246.356,1.6,0a1.253,1.253,0,0,1,.89.712l.356.178c.534-.534,5.518-1.78,6.23-1.958a7.512,7.512,0,0,1,.534-2.136c-2.848.178-13.35,1.6-14.24-1.78-.89-.534-2.848-.356-3.382-1.068l-1.068-.178c-2.314-2.314-8.188-4.628-11.214-6.586-1.958-1.6-3.56-3.738-5.518-5.162-1.246-.712-1.6-2.492-3.026-2.848-.178-.356-.89-.712-.89-1.246-1.068-.356-10.5-11.214-12.282-12.816v-.178c-4.628-4.094-8.188-9.968-12.1-14.952l-.178-.178c-3.738-4.272-13.528-18.69-17.978-22.784-1.6-1.424-2.492-3.382-4.094-4.628,8.366-.356,15.308-3.382,22.428-7.3a36.8,36.8,0,0,1,4.45-2.67l.178.178a4.462,4.462,0,0,1,1.246-.712v-.534h.178l.356.178a8.416,8.416,0,0,0,2.136-1.246c.178-.178.178-.534.356-.356l.89-.534.178-.356h.178c.356-.356.89-.356.89-.89h.534c.178-.178.534-.356.534-.712h.356c1.6-.712,5.162-4.45,6.586-5.874.356-1.78,7.476-9.434,8.366-12.1.534-1.6,1.424-2.848,1.958-4.45,1.78-5.34,3.738-18.156,1.424-23.5-.178-.178.534-.712.712-.89-.534-2.848-2.492-5.34-3.382-8.188h-.178A27.96,27.96,0,0,0,112.5-131.9h.356l.356.178.356.534v-.178c-3.026-4.628-7.3-7.12-11.392-10.68-.356-.712-1.246-.712-1.958-1.068-.534,0-1.424-1.424-4.45-1.424a1.665,1.665,0,0,0-.89-1.246c-1.246.178-2.492,0-3.026-1.068h-.712c-8.01-2.848-15.664-2.136-23.852-2.492l-.356.178c-1.246-.356-7.3.89-9.078,1.068l-.356.178H56.6l-.178.178c-2.492.89-5.162.534-7.654,1.424-.178.534-.89.534-1.246.356a21.784,21.784,0,0,0-4.806,1.6v.178a4.364,4.364,0,0,0-2.848,1.068h-.356c-.356.356-2.67,1.6-3.026,1.424l-.89.356-.356.712-.712-.178c-.712.356-2.314,1.78-3.2,1.78l-2.136,1.424-.178.356c-2.67,1.958-5.34,3.916-8.188,5.7-1.246,2.314-5.7,5.7-7.654,8.01C6.23-115.7-.356-105.91-.178-95.052c0,7.3,4.094,16.376,10.5,20.292.712.356,2.492,1.6,3.2.89v-.178c1.424.356,2.67,1.958,4.45,1.424,2.67-.712-2.848-3.026-3.738-3.56-4.984-3.382-6.23-7.832-8.01-13.172.534-.534-.89-6.764.89-9.612,0-1.6.712-2.314,1.068-3.56.89-.712,2.67-3.738,3.56-4.806l-.534-.178.178-.178c.178,0,.356.178.534.356l.356-.534-.178-.356-.356.178-.534-.356a7.348,7.348,0,0,0,1.246-2.67s0-.356.178-.178c.534-.89,1.424-1.246,2.136-1.958a1.349,1.349,0,0,0-.356.712v.534h-.534l.178.534-.712.178c.356.178,1.068.534.89.89l-.534-.356c-.178-.178-.356,0-.178.178.712.534.178.534,0,1.068l-.356-.356h-.178a.783.783,0,0,1,.178.89A10.741,10.741,0,0,1,14.6-110.36c3.382-5.7,10.324-8.722,14.774-13.172a27.336,27.336,0,0,0,5.34-1.958l-.356-.356.178-.178.178.356a7.709,7.709,0,0,0,.89-.178v-.534l-.356.178-.178-.712a19.31,19.31,0,0,1,4.984-2.67l-.178.534H39.16c.356.178.712.534.534.89l-.178.178-.356-.534H38.8v.178c.356.534,0,.89-.534,1.068l-.356-.356-.356.89c5.34-2.67,10.858-5.7,16.554-7.832,1.958-.712,5.7-.534,8.01-1.068-4.628,7.654-10.146,15.13-12.994,23.5-1.958,6.052-5.7,11.392-6.942,17.622.534.178,1.068-.534,1.246-.89,4.094-4.806,5.7-11.748,9.79-16.554l.89.712-.356.89a9.782,9.782,0,0,1,1.246,1.6v.178c-.534,0-.89.534-1.246.89H53.4a7.537,7.537,0,0,0-.712,2.136,4.719,4.719,0,0,1-.89,1.068c-.356,1.424-1.6,2.492-1.78,3.56-.178.712.356,1.424.178,2.136,1.068.712.712,0,1.246-.534l1.068.534v.178l.534.356c.356.712-1.6-.178-1.78-.178l.178.356,1.6.89-.534.534c-1.958-1.068-1.6-.178-.534,1.068l1.6.712.89-.356-.89-.534c.712,0,.534,0,0-.534l.534-.534h.712l-.534-.356.356-.178c-.712-.712-.89-1.068,0-1.068a1.355,1.355,0,0,1,1.6-.178,41.455,41.455,0,0,1-1.958,4.984l-.178-.356v-.178a18.53,18.53,0,0,0-2.848-1.068l.712.534-.356.356c-.534-.178-1.424-.89-1.958-.534l1.958,1.068c.178.712-.178,1.246-.89.712-.178.356-.712.356,0,.712l.356.178c0,.712-1.6-.356-2.136-.356l.356.356c-.534,0-.89-.534-1.246-.356l-.534.712v.178c.356.178,3.56,1.78,2.314,1.958-.712.178-1.958-.89-2.848-1.068v.178c-1.958,3.382-3.738,7.832-6.586,10.68l-.178-.534c1.958-3.382,4.094-6.586,5.874-10.146l.534-.178-.178-.178v-.356c.178-.178.356-.356.356-.534,0-.534.534-.89.712-1.424l-.89-.534-.712,1.424a.793.793,0,0,1-.534,1.068l.178.178H45.39a9.936,9.936,0,0,1-1.424.89l-.178.534-.178-.356a3.108,3.108,0,0,0-.712,2.136l-.712.89c0,.356-.178,1.068-.712,1.068l-1.6,2.314v.356h-.356l-.534.89v.534h-.356l-.178.356c.356,0,0,.534-.178.356a3.3,3.3,0,0,0-.356,1.246,4.719,4.719,0,0,1,1.068.89v.178ZM59.1-63.724A3.029,3.029,0,0,1,57.85-63.9a3.724,3.724,0,0,0-1.068.712c-2.136.534-4.984,1.6-7.12,1.6.178-1.068,7.476-16.554,8.188-17.266a113.56,113.56,0,0,1,5.518-9.968c.356-2.136,4.45-8.366,5.518-11.392.89-.534,5.7-9.968,6.764-11.748a15.194,15.194,0,0,0,2.67-6.586,6.774,6.774,0,0,1,.89-2.67v-.356c5.162-6.052-4.806-14.6-10.324-14.24L68-136.17c5.34,0,10.68-1.068,16.2-.534l.178.178,3.56,1.424.356.178.178-.356-.178-.178.178-.534a4.228,4.228,0,0,0,2.136.534l-.178.89h-.178l.178-.534-.178-.178c0,.712-.534.712-.534.534v-.534l-.534.534,1.246.534h.534a1.563,1.563,0,0,0,1.246.178c2.492,1.246,5.518,1.424,7.832,2.848.89.534,1.246,1.068,2.314,1.068l1.068.712a9.2,9.2,0,0,1,2.314,1.068l.534.712a11.02,11.02,0,0,1,3.026,1.958c.356.89,1.246,1.424,1.424,2.314l1.424,1.068v.178c.534.712,1.424,3.026,1.958,3.382h.178l.534.356c.178-.178.356-.356.356-.534l.534.534h.178l.356.356c-.356,1.78,1.424,4.094-.178,9.434h.534v.356c-.178,0-.534-.178-.712-.178l-.178.712.356.356.178-.356h.356a10.3,10.3,0,0,1-1.246,3.738v.534l-.712-.356v-.356l.534.178.178-.178h-.178l-.356-.534v-.356l.178-.356.534.178a1.36,1.36,0,0,1-.356-.89c-.89,1.958-1.424,4.45-2.67,6.23-.356-.178-1.246,1.424-1.424,1.78a44.064,44.064,0,0,1-4.984,6.408c-.356.178-6.052,6.408-7.12,7.476-1.6.356-4.272,3.738-5.874,4.806-.356,0-7.3,4.984-7.654,5.34-2.492.89-10.68,6.052-12.46,5.874l-1.78.89A47.373,47.373,0,0,1,59.1-63.724ZM15.13-122.108v1.068l-.534.356-.356.89.178.178a2.2,2.2,0,0,0,1.424-.712l.534.356a13.594,13.594,0,0,0-1.6,1.6H14.6c-.178.356-3.738,4.628-4.628,6.052l-.356.178L8.9-110.716,8.01-110c-.534,2.492-1.78,4.806-2.492,7.3H5.34v1.958l-.356-.534c-.89,1.068-.534,3.916-1.78,4.806,0-.534-.178-.89-.178-1.424l.178-.178.356-.89a1.616,1.616,0,0,1-.534-1.246c0-.356.178-1.958.178-.712,1.424-.712.712-3.382,1.6-4.45a28.363,28.363,0,0,1,2.67-5.162c.356-.712.534-1.958,1.6-1.958a3.974,3.974,0,0,1,1.068-2.314h.178a1.83,1.83,0,0,1,1.78-1.958,3.193,3.193,0,0,1,.89-1.246l-.356-.534C7.832-113.92,1.6-102.172,1.6-95.052c0,1.78.712,4.094.356,5.874-1.068-.534-.89-1.068-.534-2.136a10.667,10.667,0,0,1-.356-6.23c-1.6-6.586,12.46-25.276,18.334-29.014C19.046-125.312,16.2-123.176,15.13-122.108Zm66.394-24.564a6.154,6.154,0,0,1,3.56.356c4.628-.178,11.036,3.026,15.842,5.874l-.712.178-.178-.178-.712-.178v.178l.534.712-.356.356-1.068-.178c-.356,0,.178-.534.178-.712h-.534l-.356.178-1.958-.712-.178-.534-.712.178a13.338,13.338,0,0,0-2.848-.89l-.534-.534a2.258,2.258,0,0,1-1.068-.178l.178-.534a2.509,2.509,0,0,1-2.492-.178c-.178,0,0-.178,0-.178V-144h-.356l-.178.534H87.22l-.356-.356.356-.356a13.34,13.34,0,0,1-2.848-.89l.712-.178.178.178.534.178.712-.356c.178,0,.89,0,.89.178H87.22l.178.178.89.356a1.891,1.891,0,0,1,1.424.178c.89.178,4.094,1.068,4.628,1.6a5.2,5.2,0,0,1,1.6.356v.178c.712-.178,1.068.534,1.6.89l.712.178.178-.178c-2.314-2.848-17.8-5.162-18.156-5.518C80.634-147.384,81.168-147.028,81.524-146.672Zm66.928,167.5c-2.848.178-6.052,0-8.722.534-.178-.534-3.382-1.424-3.916-1.246a4.523,4.523,0,0,0-2.314-.89,34.313,34.313,0,0,0-6.764-3.382c-2.492-.89-4.272-3.2-6.586-4.272l.534-.89c.89.712,4.628,3.738,5.162,3.382l.712.356.534.712,1.068.534a.783.783,0,0,0,.89.178l.89.178,1.424,1.068c2.314.89,5.518,2.67,7.654,3.026a27.559,27.559,0,0,1,3.916.178c1.068.534,3.382.356,4.628,0,.356-.356,1.6-.178,1.958-.356C149.342,20.47,148.808,20.648,148.452,20.826ZM41.652-74.048h-.178L43.432-72.8H42.72l.534.356a10.889,10.889,0,0,1-2.136.89l-.89,1.78H40.05c-.534,0-.534,0,0,.178v.356c-.356,0-.712-.356-1.068-.534a5.568,5.568,0,0,0,.89-1.78l-.89-.178-.178-.178-1.246-.534c-.356-1.068,1.78-.356,2.136-.178a7.215,7.215,0,0,0-1.6-.89c-.356-.534,1.246.534.89-.178-1.246-.534-.178-.89.534-1.6l1.068.356-.89-.712a.766.766,0,0,0,.712-.712l1.78.712a6.393,6.393,0,0,1-1.78-1.246c.712-.178,2.314.712,2.848,1.068l.356.712C42.9-73.692,43.788-72.8,41.652-74.048ZM27.946-132.61c.534-1.424,3.026-2.492,4.272-3.382,8.366-5.518,23.14-10.68,33.286-10.68l-.712.356C54.112-146.138,36.668-139.2,27.946-132.61Zm90.068,34.176c.534.534.356.712-.178,1.068.356,1.958-3.56,9.256-4.984,10.68-.534,1.6-4.272,5.7-4.272,5.7.534-1.424,1.78-2.314,1.958-3.916,2.67-3.56,5.518-8.188,6.764-12.46C117.48-97.722,117.658-98.256,118.014-98.434ZM87.042-24.564C83.126-29.192,69.776-43.61,67.284-48.772l.534.178c2.67,2.67,19.224,23.14,19.4,23.318ZM114.988,6.942c-4.45-5.34-9.968-10.324-14.774-15.308l.712-.356a33.5,33.5,0,0,0,5.162,5.7A17.044,17.044,0,0,0,110.182.89c.356,1.246,6.408,5.874,6.586,6.408a.65.65,0,0,0-.356.89C115.7,7.832,115.166,7.832,114.988,6.942ZM53.4-104.308l.712.356-.178-.712.356-.178v-.356h.356l.712-.534c0-.356.356-.534.534-.712l.534.178a3.3,3.3,0,0,0,.356,1.246,1.918,1.918,0,0,0-1.424-.356,5.517,5.517,0,0,0,2.314,1.068c-.356.178-.534.712-.712,1.068l-2.136-1.068-.178.356.534.356c-.356,0-.178.178,0,.356a6.323,6.323,0,0,0,1.6.712l.178.178v.534l-.534-.356c0,.534-1.424-.534-1.78-.534l-.356.178a17.788,17.788,0,0,0,2.492,1.424v.356a28.8,28.8,0,0,1-3.2-1.78l.178-.356c-.178-.178,0-.356.178-.534l-.534-.356Zm12.282-42.364c.712-.534,2.67-.356,3.56-.356l-.178.534-.178.178c1.424,0,3.026-.178,4.272.712l-.534.178-.178.356a3.919,3.919,0,0,1-1.424-.178l-.178-.356-.178.356c-1.958-.356-3.56.178-5.518.178,0-.712,1.424-1.068,1.958-.89l.178.178.178-.712A2.106,2.106,0,0,1,65.682-146.672ZM121.218,15.842a13.471,13.471,0,0,1-3.56-2.314,2.242,2.242,0,0,0,.534-2.314l3.738,3.026Zm-92.2-54.824c-.178-.712.356-.89-.356-1.424a112.449,112.449,0,0,1,4.45-10.68h.712C31.684-47.526,30.438-42.72,29.014-38.982ZM95.586-12.1c3.382,3.738,6.586,7.832,9.968,11.57l-.712-.534C102.35-2.67,97.188-9.434,95.586-12.1ZM85.44-12.638c-1.068-1.068-1.958-2.492-3.2-3.56A4.284,4.284,0,0,1,83.66-15.13l.178-.178-1.6-2.136H81.88a2.261,2.261,0,0,0-.712-1.246l.356.178c0,.178,0,.356.178.356.178.534,1.246,1.068,1.246,1.246a4.947,4.947,0,0,1,2.136,2.136c.356,0,1.068.89,1.424,1.246l.178.356h.178c.534.356.534.89.89,1.424C87.042-12.46,86.33-12.282,85.44-12.638ZM53.756-100.214a1.07,1.07,0,0,1-.712.178l-1.424-1.246v-.89l.178-.178a27.28,27.28,0,0,1,4.806,1.958v.178c-.534-.178-3.026-1.246-3.382-1.246a11.806,11.806,0,0,0,3.382,1.6l-.178.712ZM20.292-30.082l.712.356c-1.246,2.67-1.958,5.518-3.382,8.01C18.512-24.386,19.224-27.412,20.292-30.082Zm30.438-59.1-.356-.356c0-.356.356-.534.534-.712-.356-.356,0-.534.356-.534-.178-.178-.356-.356-.178-.534l.89.356h.356l.89.712A4.462,4.462,0,0,0,52.51-89l-.178.356h-.178L51.264-89l-.356-.356Zm9.256-47.882c-1.424.356-8.366,2.136-8.9,2.492l.178-.534.534.178a1.869,1.869,0,0,1,1.6-.89l.178-.178h.534c.534-.356,5.162-1.068,6.052-1.246Zm20.648-1.78.356.534h1.6l-.178.356.356.534.356.178a16.161,16.161,0,0,1-4.094-.534C79.922-137.95,80.1-138.306,80.634-138.84Zm-10.146,1.424a3.029,3.029,0,0,0-1.246-.178l-.356.534H66.572v-.356c1.958-.712,3.916-.534,6.052-.534ZM56.782-98.256l.534.356A19.854,19.854,0,0,0,55-93.628c-.356-.356,0,.712-.356.356l-.356-.178ZM32.4-55.358c.712.178.534.89.178,1.424v.178l-.534-.178.178.89L31.684-51.8l-.712-.534A9.444,9.444,0,0,0,32.4-55.358ZM22.25-128.516l-1.246.89c1.246-1.246,4.272-4.272,5.162-4.094l-1.246,1.246C23.5-129.94,23.14-128.872,22.25-128.516ZM94.162-15.308a2.53,2.53,0,0,0,1.068-.356,5.3,5.3,0,0,1,1.246,1.958l-.712.356C95.23-14.062,94.874-14.952,94.162-15.308ZM23.14-120.15l-.534-.178-.356.178.356.534c-.712.356-1.246,1.246-1.958,1.424-.178-.356-.178-.712.356-.534,0-.534,1.424-1.78,1.78-2.136C22.962-120.684,23.674-120.328,23.14-120.15Zm11.036-5.518-.356-.356h-.356l.356.534c-.356.356-1.6,1.068-2.136.534A10.092,10.092,0,0,1,34-126.38l.356.356ZM74.76-145.782l.356.178v-.178h.356l.356.178H75.65l.712.356c-.712.178-1.78.712-2.492,0a1.777,1.777,0,0,0,.712-.89ZM97.9-12.638l.356.89-.356.178c.178.712.89,1.068,1.068,1.78-.356-.356-.89-.712-.89-1.068l-1.424-1.424.89-.534ZM60.876-113.564a24.926,24.926,0,0,1-1.78,2.848H58.74l.356-.89a8.944,8.944,0,0,0,1.424-2.136h.356ZM91.67-136.348l.712.178.178.178a7.439,7.439,0,0,1,1.78.712h.178l.712.356v.178c-.534-.534-1.424,0-2.314-.89l-.178.356-1.068-.712Zm-80.99,30.26-.712.178c.712.356-.178,0-.356,0a2.768,2.768,0,0,1,1.068-1.424l.534.356ZM78.5-145.6v-.356l.356.178c.534-.356.534-.356,1.068,0h-.534a2.258,2.258,0,0,0,.178,1.068,2.258,2.258,0,0,0-1.068-.178l-.534-.356Zm-3.2,81.7-.178-.178-.178.356a10.506,10.506,0,0,0-2.492.356v-.178a14.829,14.829,0,0,1,2.67-.712c0-.534.356,0,.534.178Zm38.8-27.946-.178.712c-.356.712-1.068,1.246-1.068,2.136-.356.356-.89,1.6-1.424,1.424C112.5-88.644,113.208-90.6,114.1-91.848ZM36.668-63.012l-.178-.178v.534l-.534.89-.534-.178a6.323,6.323,0,0,0,.712-1.6c.178,0,.534.178.712.178Zm4.984-14.6a4.052,4.052,0,0,1,1.6,1.424C43.076-76.184,40.05-77.608,41.652-77.608Zm76.006-33.286a2.285,2.285,0,0,0-.712,1.78h-.534a3.029,3.029,0,0,0,.178-1.246l.534-.534c-.178,0-.356,0-.356-.178A1.334,1.334,0,0,1,117.658-110.894Zm-27.234-25.1c-.356-.356-2.314-.534-1.6-.89h1.246l.356-.178-.356.356C90.424-136.526,91.136-136.17,90.424-135.992ZM108.58,2.136c-.89-.356-1.424-.178-1.958-1.424-.178-.178-.356-.356-.356-.534A12.256,12.256,0,0,0,108.58,2.136ZM63.012-145.6l.534-.178a4.461,4.461,0,0,1,1.246.712,6.056,6.056,0,0,0-1.78.178Zm40.406,61.766-.356-.712v-.178h.356v-.356c.178,0,.356,0,.356-.178l.534.534ZM83.66-144.714c-.178-.178-.534-.356-.356-.534l-.89-.356.356-.178,1.068.356.356.356v.356l.356.178-.356.178v-.356ZM56.96-105.02l.356-.712h.178l.712.356-.178.534s-1.068-.178-.534.178l-.712-.356Zm-4.806,12.1a4.191,4.191,0,0,1,1.78.89c.178-.178.356.178.178.356a3.4,3.4,0,0,0-1.424-.534l-.534-.534h.356Zm28.48-52.154.356-.356.356.178v.356h.89l.178.178c-.712,0-1.78.178-2.314-.178v-.178Zm26.7,56.6h-.712l-.534.534v-.178l.89-1.068h.356l.356.178ZM51.62-92.026h.534l.534.534c.178,0,.356,0,.356.178l-.178.178.534.356a6.322,6.322,0,0,0-1.6-.712C51.62-91.67,51.442-91.848,51.62-92.026Zm-.89,2.848,1.246.89v.178A9.54,9.54,0,0,0,50.018-89,1.07,1.07,0,0,1,50.73-89.178ZM24.564-121.4l-.178-.712a10.244,10.244,0,0,0,1.78-.356Zm79.566-17.088a11.925,11.925,0,0,1-3.2-1.958A30.966,30.966,0,0,0,104.13-138.484ZM46.458-55.536v-.178a4.189,4.189,0,0,1,1.424.356c.356.534,1.246.712,1.6,1.246A9.444,9.444,0,0,0,46.458-55.536ZM87.576-136.17v.534h-.534l-.356-.534v.356l-.178-.356.178-.178ZM17.088-120.684c-.178.178-.356,0-.178-.178l-.178-.356.534-.356H17.8Zm17.622,60.7.356.178-.534,1.068-.356-.178Zm1.068,4.45-.534-.178.356-.712.534.178Zm-.712-5.518.534.178-.356.712-.534-.178Zm-1.958,4.272.534.178-.178.534h-.712Zm35.244,26.7c-.178-.178-.178-.356-.356-.534l1.958,1.6h-.178C69.242-29.192,68.886-29.9,68.352-30.082ZM56.248-47.17a7.215,7.215,0,0,0-.89-1.6C55.714-48.416,64.08-33.286,56.248-47.17Zm21.538-98.612c-.178.178-.534.356-.534.712h-.534l.356-.356v-.356Zm33.108,59.1.534-.712a1.076,1.076,0,0,1-.534,1.068,7.709,7.709,0,0,1-.178.89Zm-35.6-60.52a1.135,1.135,0,0,1,1.068,0l-.89.356C75.294-146.85,75.294-147.028,75.294-147.206Zm2.314,0-.178.356h-.712v-.178A1.334,1.334,0,0,1,77.608-147.206Zm-4.094,0a3.029,3.029,0,0,1,1.246.178,2.258,2.258,0,0,0-1.068.178l-.356-.178Zm24.92,13.528v.356l-.89-.356-.178-.178H97.9l.178.178Zm-7.654-3.2h.356c.178,0,.534,0,.534.356h-.712Zm23.674,35.6c-.178.356-.534.356-.89.178C113.742-101.46,114.1-101.46,114.454-101.282ZM47.526-57.672v.89h-.534Zm-5.874-72.446c.356-.178.534,0,.712.356C42.008-129.584,41.83-129.762,41.652-130.118ZM34.176-57.85h-.534L34-58.384l.356.178Zm68.174-25.1-.178-.178.534-.534.178.356ZM34-57.138l-.534-.178.178-.356.534.178Zm23.852-48.95-.178-.178.356-.712c.178,0,.356,0,.356-.178ZM39.16-80.1a1.07,1.07,0,0,1-.178.712C38.626-79.922,38.626-79.922,39.16-80.1Zm7.12-53.222c-.178.356-.356.356-.712.356.356-.178.534-.178.534-.712h.178ZM3.916-96.3l.356-.534a.654.654,0,0,1,.178.534ZM61.41-115.344a1.6,1.6,0,0,1-.178.89l-.178-.178Zm22.25-29.37v.356l-.534-.178C82.948-144.714,83.66-144.714,83.66-144.714ZM40.05-73.336l-1.068-.356.89.534Zm39.694-71.912c-.356-.356.178-.178.534-.178A.879.879,0,0,1,79.744-145.248ZM31.862-124.6c0,.178-.356.178-.356,0v-.356h.178Zm2.492,72.446a2.658,2.658,0,0,1,.534-1.246Zm5.7-76.184v-.534c.178,0,.178,0,.356.178Zm74.226,25.276.178-.356c.178,0,.356.178.178.356ZM33.286-55.536l-.178.178-.356-.356A.654.654,0,0,1,33.286-55.536Zm1.958,1.6c-.178-.178-.178-.178-.178-.356l.356-.356A1.07,1.07,0,0,0,35.244-53.934ZM37.736-72.09c-.178,0-.178,0-.356-.178h.178l.534.356C37.914-71.912,37.914-71.912,37.736-72.09Zm50.2-63.546.178-.178c0,.178-.178.356-.178.534ZM54.646-95.764H54.29l-.356-.178.534.356Zm37.38-46.992c-.178,0-.356,0-.356.178h.356ZM57.138-98.968c0-.178,0-.178.178-.356v.356ZM35.6-61.41h.178v.178C35.6-61.232,35.6-61.232,35.6-61.41ZM14.952-112.674a1.793,1.793,0,0,0,.534.178Zm47.526-24.742v.178l-.356-.178Zm-10.5,46.992a1.349,1.349,0,0,1-.712-.356Zm9.968-46.992h.178v.178ZM36.49-57.138v-.178h.178Zm17.088-33.82c.178,0-.178.178-.178.178ZM64.97-32.04C64.614-33.108,64.97-32.218,64.97-32.04Zm73.514,55.714c-.178,0-.178-.178-.356-.178C138.306,23.5,138.306,23.674,138.484,23.674Z" transform="translate(531 353)" fill="#b6710d"/>
    <path id="パス_18" data-name="パス 18" d="M101.46-52.154l.356.356.534.178.534.534-.89.712-.89-.356.89.712-.534.178a2.871,2.871,0,0,1,.534,1.6c-.178,0-.534-.178-.712-.178a2.154,2.154,0,0,1-2.492-.356l3.738-5.162c1.246.712,2.492,1.78,3.916,2.136l-1.068-1.068.534-.356c.712.356,1.958,1.424,2.848,1.246l-2.848-1.958c-.356-1.246.178-1.6,1.246-.89.178-.356.712-.356.356-.712l-.356-.356-.534-.178c.178-.89,2.67.534,3.2.712l-.534-.534c.712.178,1.246.89,1.958.534l.534-.89c-.356-.356-5.162-2.848-3.382-3.026,1.424-.178,3.026,1.246,4.272,1.78,0-.178.178-.178.178-.356,2.492-4.272,4.272-12.282,6.764-15.664-.534-.534,1.424.178.89.534a82.731,82.731,0,0,1-6.586,15.308l-.534.178v.178c0,.178.178.178.178,0l-.178.534c-.178,0-1.246,2.314-1.6,2.67l1.424.712c.534-.712,1.424-3.2,1.78-3.2l-.178-.356c.712.356,1.6-.89,2.314-1.246l.356-.89.178.356c1.6-1.6.534-3.382,1.78-4.628.178-.712,0-1.6.89-1.78l.534-.89v-.178l.712-1.068v-.178l.534-1.068-.178-.356v-.178l.356-.178.534-1.424-.178-.178v-.534l.356-.178.178-.534c-.356-.356-.534-.534.178-.534l.178-.534a.86.86,0,0,1,0-1.246c-.178-.178-2.136-.89-1.958-1.246a4.515,4.515,0,0,1,2.136.356c-.356-.356-.534-.712.178-.89v-.178c-1.068-.534.534-1.068-.178-1.958l-.178-.534.178-.178c.178,0,.534-.178.712-.178v-.712l.178.356-.178-.534.178-.178c.178-1.6.534-6.764.178-8.01a8.831,8.831,0,0,0,.534-2.314,10.48,10.48,0,0,1,1.78,6.052c2.492-11.748,2.848-24.208-3.2-34.888-2.314-4.094-4.272-7.3-8.366-9.968-1.6-1.068-3.382-1.6-4.984-2.492a17.05,17.05,0,0,1-4.45-3.56,23.19,23.19,0,0,1,2.67,1.78v-.356c-1.068-2.136-5.34-4.094-7.476-5.162v-.178l.356.178h.178C95.764-144,87.4-144.536,80.1-145.07c-20.47-1.424-39.16,10.146-53.756,23.5-3.916,3.56-6.408,8.01-9.968,11.57a35.613,35.613,0,0,0-4.984,6.586c-2.136,1.424-6.586,11.748-7.654,14.6C2.314-84.906,2.136-80.99.89-77.074a61.447,61.447,0,0,1,.89,11.392l.712.178.356-.178.712-1.246c0,.89.356,3.916,1.246,4.272,1.6.89,7.3-.356,8.9-.712.178-.356-.178-1.6-.178-2.136a34.332,34.332,0,0,1-.178-8.544A46.517,46.517,0,0,1,16.732-85.8c.178-.534,1.068-1.6.356-2.136-.356-.178-2.314,3.916-2.67,4.806-.178.534-.356,1.246-.89,1.424a.383.383,0,0,1-.356-.356c.178-1.068,1.068-2.314,1.246-3.56l-.178.178a118.4,118.4,0,0,1,5.874-10.324c0-1.068,3.026-6.052,3.738-7.12,0-.356,0-.89.356-.89l.356-.178.712-.89-.534.356a9.783,9.783,0,0,1,1.246-1.6v.178c7.3-9.434,16.554-14.774,26.166-21l-.356.178a36.044,36.044,0,0,0,5.34-3.738h.356c.712-.712,6.23-2.136,7.832-2.67l-.178-.712c-1.068.356-7.12,2.136-7.654,2.492h-.178a29.449,29.449,0,0,1-5.7,3.2l-1.068.178c.356-.534,8.366-4.45,9.434-4.628.712-.712,3.738-1.424,4.806-1.78a1.07,1.07,0,0,0,.712-.178c4.094-1.068,8.366-2.314,12.816-2.136a50.291,50.291,0,0,0,5.162.356,15.223,15.223,0,0,1-2.848,0,45.33,45.33,0,0,0-14.6,2.136l.356.356a2.53,2.53,0,0,1,1.068.356,54.382,54.382,0,0,1,12.994-1.78c1.78,0,3.56-.534,5.34-.534,4.984,0,10.324,1.78,14.774,4.094l-1.6-.89a30.052,30.052,0,0,1,6.764,3.382l.178-.178a36.748,36.748,0,0,1,5.518,4.984c7.3,25.276-15.13,73.336-35.956,91.492v.534l-.89.712a3.3,3.3,0,0,0-1.246.356C68-26.7,62.122-22.606,56.96-17.8c-2.314.89-5.162,3.026-7.3,4.45-3.916,2.492-8.188,4.272-12.282,6.408l4.272-1.78C36.134-5.34,21.182-1.068,15.308-3.56,10.68-5.518,8.366-18.334,9.078-23.14c0-.534.178-1.068.178-1.6l.534-1.246v-1.068l.356-.534H9.968l.534-1.246h.178a3.951,3.951,0,0,1,.89-1.958,3.4,3.4,0,0,1,.534-1.424c.534-.178.534-1.424,1.068-1.958,1.068-.712,2.314-4.806,3.916-6.052a6.245,6.245,0,0,1,.89-1.424,3.193,3.193,0,0,0,1.246-.89c1.6-1.6,2.314-3.916,4.272-5.34a55.4,55.4,0,0,0,4.984-4.094h-.356a3.193,3.193,0,0,1,1.246-.89l2.67-2.67c.178.178.178-.356.356-.178.534-.178.89-.712,1.424-1.068l-.178.356c0,2.67-2.314,11.036-3.56,13.528l-.356.178c-.712,1.958-4.272,14.774-3.916,16.02.534,1.78,2.492,2.314,4.094,2.848l.89-.356,1.068,1.424,1.068-3.2c1.246-.178,1.78-4.094,3.026-6.23v.178l-.178.356c.356,1.246-1.068,2.848-.534,3.916-.712.534-1.424,3.026-1.6,3.916l-.356-.356-.534,2.136.534.356c1.246-.178,1.246-.89,2.136-1.246.89-.178,2.314.178,3.382-.178,1.6-.534,1.424-2.67,2.848-3.382,1.246-3.916,2.136-8.366,3.2-12.282a154.95,154.95,0,0,1,8.188-23.674c.178-.356.712-.89.534-1.424a6.773,6.773,0,0,0,1.6-2.314v-.178c5.518-1.424,10.68-2.848,16.2-3.916-1.068,0-2.136.178-3.2.178A60.5,60.5,0,0,1,76.362-71.2l.178-.178v-.534l-6.942.534.356-.534a90.522,90.522,0,0,1,9.79-.712l.356-.712H79.032v-.712h3.026v-.534c-3.738-.356-6.942-.89-10.68-.534a50.735,50.735,0,0,1,5.162-.534,37.452,37.452,0,0,0-9.968.356v-.178h.356l.178-.356h.178l.178-.356H68l-.178-.178c-1.78.178-8.366,1.424-9.078,1.424.712-1.246,1.6-4.45,2.67-5.518a90.122,90.122,0,0,1,4.272-8.188c0-1.246,3.382-8.01,4.094-9.434,0-.178,0-.356.178-.356a3.391,3.391,0,0,1,.89-1.78,19.053,19.053,0,0,0,2.314-5.518c1.78-2.314,3.2-4.628,3.2-7.654,0-1.78,1.246-3.2,1.424-4.984.534-4.806-7.832-8.188-11.036-10.68l-.89.178c-1.424-1.6-3.026-.89-4.45.178a10.24,10.24,0,0,0-.89,4.628c-3.916,8.188-6.23,16.91-9.968,25.1-4.094,8.9-8.366,17.266-11.214,26.522l-.534.356a10.293,10.293,0,0,0-.89,2.492,6.969,6.969,0,0,0-1.424,1.78c-2.67,1.424-5.874,2.848-8.188,4.806l-.178.534-.534.356h-.534l-2.848,1.958v.356c-.89,1.246-3.738,2.136-5.162,3.2v.712l-.712-.178-2.67,2.492v.356L14.24-52.154l-.178.534-.356.178c-.356.534-.89.89-1.068,1.6l-.534.178-.534.534v.712h-.534c-.534.534-.89,1.78-1.78,2.136l-1.068,1.6v.356c-1.246,1.78-2.492,4.45-4.094,5.874C2.848-35.066.712-31.862.178-28.3,0-26.7-.178-24.564-.534-22.962l-.178.178c0,7.12,1.246,6.23,1.958,11.748v.356a16.7,16.7,0,0,0,1.6,2.136C5.874-1.78,15.308,1.424,22.072,2.848c1.958.356,4.094,0,6.052.178a28.84,28.84,0,0,1-3.916.178C29.014,4.272,44.144,2.492,48.416.89A5.481,5.481,0,0,1,50.73.356c1.424-.534,10.146-3.382,11.214-3.2C72.8-7.12,86.686-18.868,95.052-27.768l.712-.356,4.806-6.23c-2.136,2.136-3.56,4.45-7.12,4.094l-1.424,1.246v-.356l.89-1.068h-.178l.534-.712v-.178l2.136-2.314.534.356-.712,1.068c.178,0,.356,0,.356.178l.356-.178.89.534v-.178a19.052,19.052,0,0,1,2.492-2.848,3.391,3.391,0,0,0,1.78-.89h.534c.712-1.958,5.7-6.764,6.052-8.188.178-.89-.356-2.136,0-3.026-1.424-1.246-1.246-.356-1.78.534a5.658,5.658,0,0,1-2.136-1.958c-.534-.712,1.958.534,2.314.534l-.178-.534-2.314-1.6.89-.356c.178.178,2.314,1.424,2.136.712,0-.178-1.068-1.78-1.246-2.136l-2.314-1.246a1.918,1.918,0,0,1-1.424.356,3.578,3.578,0,0,0,1.424.712c.534.534-1.068-.178-.712.178l-.712-.534ZM36.134-119.972l-.89.178c-2.136,3.026-6.408,6.052-9.79,10.858a.979.979,0,0,1-.89.534l-.178.89-.356.356a.766.766,0,0,0-.712.712c-3.382,3.738-9.612,16.2-11.392,21.182v.178H11.57l-.178-.356c-.178-.89,1.6-4.628,2.136-5.7a73.429,73.429,0,0,1,12.46-20.47c2.136-2.67,4.806-4.806,6.942-7.3l.712-.356c.356-.712,7.476-5.34,8.722-6.23l.356.356C40.228-123.71,38.448-121.4,36.134-119.972Zm6.408,49.306.712-.534v-.89c1.068-1.6,1.246-3.916,2.136-5.34a2.869,2.869,0,0,0,.712-1.246,32.77,32.77,0,0,0,1.6-4.45c0-.356.534-.534.712-.712v-.712l.178-.356c.356,0,.712-.356.534-.712,2.492-6.408,6.408-12.1,9.256-18.512h.534l.178.178a44.175,44.175,0,0,1-3.56,7.832c.178,1.068-1.068,2.848-1.424,3.738-.89,2.314-2.67,4.272-3.56,6.586-1.78,4.272-3.916,10.324-6.23,14.418A7.439,7.439,0,0,0,42.542-70.666Zm77.964-14.062a8.935,8.935,0,0,0-2.136-.356s-.534,0-.534.178a4.928,4.928,0,0,0,1.6.178v.178l1.068.178c1.246,1.246-2.314.89-2.67.89a13.111,13.111,0,0,0,2.492.712c.356.356-.712.178-.712.178h-.534l.178.178h0c.178,0,1.068.356,1.068.712l-1.068,1.6a7.213,7.213,0,0,1-1.958,0,8.677,8.677,0,0,1,1.958.712c-.712,0-1.068.356-.89,1.068a6.488,6.488,0,0,0-2.67-.356,4.927,4.927,0,0,0,2.314.534l.712.356c-1.6.712-3.2,0-4.628-.534l-.178-.178.534-.356.712-2.136h.534l-.534-.356c.89-2.848.178-3.738,1.246-2.67a6.8,6.8,0,0,1-1.068-2.848h.534c.89,0,.178-.178-.178-.356h-.356V-87.4l1.068-.178c.89.356.89.712,1.6,1.068.356.534-.712.534.178,1.068a6.5,6.5,0,0,1,2.67.534Zm-18.156,44.5c-.356-.178-.712-.178-1.068-.534l.178.89-.356.178-.178.534c-.178,0-.534-.178-.712-.178l-1.958,1.246c-.89-.89-3.382-2.848-4.272-3.56l.356-.356c.178,0,2.67,2.136,2.136,1.068a18.056,18.056,0,0,0,2.314,1.6h.356c-1.068-1.246-3.382-1.958-3.916-3.382a1.36,1.36,0,0,1,.89.356c-.178-.356,0-.534.356-.712v-.178l3.738,2.67.356-.356-.712-.712c.534.178.712-.178.178-.534L97.722-43.61c-.178-.356-1.424-1.424-1.068-1.424l1.6,1.068c.178-.712,2.136,1.246,2.492,1.424l.534-.178c-1.424-1.424-3.026-2.314-4.45-3.738.89.178,5.34,3.026,5.518,3.916l-.534.356.178.534-.356.356.89.534ZM97.01-37.38a9.33,9.33,0,0,1-1.78,1.958h-.178l-.356.356a3.578,3.578,0,0,1-.712,2.314l-.89.712a4.284,4.284,0,0,0-1.424,1.068,6.665,6.665,0,0,1-2.314-2.136l.356-.356.534.712c1.424-2.314,3.738-4.094,5.34-6.408a10.741,10.741,0,0,1,1.424,1.424ZM48.238-75.116a7.023,7.023,0,0,1-1.068,2.67l-.712.178.356-.356A15.4,15.4,0,0,1,48.06-75.65v-.178c1.6-4.272,11.214-24.208,12.816-25.81C60.7-100.748,48.238-75.116,48.238-75.116Zm-34.71-10.5-.356.356c-.178-1.246,4.984-11.926,5.874-12.816.89-2.67,4.984-6.586,5.518-8.544,1.424-1.068,2.314-2.848,3.382-4.272,1.6-1.958,3.56-3.56,5.34-5.34h.356c-1.246,2.492-4.984,4.806-6.586,7.476-1.068,1.78-2.67,3.2-3.738,4.806A72.754,72.754,0,0,0,13.528-85.618ZM102.35-45.746c1.246-1.424,2.848,2.314,3.026,3.2a2.258,2.258,0,0,1-1.068.178c-1.068-.712-6.586-4.094-6.942-4.628l.178-.178a47.617,47.617,0,0,0,4.984,3.2l.178-.178a24.544,24.544,0,0,1-4.984-3.382l.534-.712A31.348,31.348,0,0,0,102.35-45.746ZM5.7-17.8v-1.424c-.712-1.068-.356-2.67-.178-3.738.534-5.162,3.382-11.926,6.23-16.2l1.424-1.78C8.722-34,5.34-25.988,5.874-17.8ZM52.51-95.942v-.178c1.958-2.492,2.314-6.23,4.45-8.366.178.89-6.23,13.706-7.832,15.664ZM41.3-60.7l.712-.356a9.067,9.067,0,0,1-1.246,3.026C39.694-55,38.626-51.264,37.38-48.416c0-.178-.356-1.068-.356-1.246C38.8-53.044,39.516-57.138,41.3-60.7Zm65.86.712.534.534-.178.356a.472.472,0,0,0-.534.534c.534.356-.178.534-.534.534h-.356c.534.356.89.712.356.89a3.578,3.578,0,0,0-1.424-.712l.356-.534,1.068-1.78.534.356.178-.178-.712-.356.356-.534a2.869,2.869,0,0,0,1.246.712C107.868-59.808,107.334-59.986,107.156-59.986ZM29.726-41.3l.712.356c-.356,2.136-1.78,4.45-2.67,6.408C28.48-36.668,29.192-38.982,29.726-41.3ZM68-9.078A156.956,156.956,0,0,0,83.3-20.648c.178-.534,2.492-2.136,3.026-2.848l.356-.178A114.651,114.651,0,0,1,68-9.078Zm49.128-67.284a17.964,17.964,0,0,1-2.67-1.246C115.522-77.43,119.082-76.9,117.124-76.362ZM60.7-111.072a11.122,11.122,0,0,1-1.78,3.916l-.356-.178A40,40,0,0,1,60.7-111.072ZM87.042-24.03a3.578,3.578,0,0,1,.712-1.424l.712-.178.712-.534a8.14,8.14,0,0,1,2.848-2.67ZM11.748-80.812a3.588,3.588,0,0,0-.534,1.958,5.657,5.657,0,0,0-.534,1.6,13.2,13.2,0,0,1,.89-4.45h.356Zm16.2,27.59.356-.534C30.26-55,31.862-56.6,33.82-57.85c.178,0,.356,0,.356-.178L34-57.494c-1.958.712-4.45,3.2-6.23,4.45H27.59Zm77.074-3.2-.534-.534.356-.534c.178.178,1.6.712,1.246,1.246ZM22.784-101.46l-.89,1.424h-.356l.712-1.424.534-.356ZM38.448-60.52,38.8-60.7v-.178l.712-.356-.534,1.246-.356-.178-.356.178ZM59.1-105.2c.178-.356.89-1.78.89-1.068L59.63-105.2l-.356.178ZM105.02-55.18c-.356-.178-.89-.356-1.068-.712l.178-.356h.178l.89.712h-.534Zm16.554-19.758c.712.534,1.068.712,0,1.068ZM10.68-82.592a3.029,3.029,0,0,1,.178-1.246l.356-.178-.356,1.6ZM42.008-62.656l.712-.178-.178.534c-.356,0-.534.178-.89.356ZM121.574-75.65l.178-.534.178-.178C122.642-75.828,122.108-75.828,121.574-75.65ZM38.982-59.63l-.356.712-.356-.356A1.349,1.349,0,0,1,38.982-59.63Zm78.676-22.962a2.639,2.639,0,0,0,1.246.178C118.37-82.414,118.014-82.592,117.658-82.592Zm-11.57,24.564a1.349,1.349,0,0,1-.712-.356Zm10.5-25.632c0-.178,0-.178-.178-.356C116.59-83.838,116.59-83.838,116.59-83.66ZM99.146-39.338a.174.174,0,0,0,.178.178Z" transform="translate(710 353)" fill="#b6710d"/>
    <path id="パス_19" data-name="パス 19" d="M4.785-40.168H22.859A12.253,12.253,0,0,1,31.5-37.146q3.281,3.021,3.281,8.49a12.344,12.344,0,0,1-2.926,8.189q-2.926,3.486-9,3.486H10.227V0H4.785Zm24.5,11.539q0-4.43-3.281-6.016a11.847,11.847,0,0,0-4.949-.848H10.227v13.918H21.055A10.349,10.349,0,0,0,27-23.133Q29.285-24.691,29.285-28.629ZM58.953-41.262q10.637,0,15.75,6.836Q78.7-29.094,78.7-20.781q0,9-4.566,14.957-5.359,7-15.285,7-9.27,0-14.574-6.125-4.73-5.906-4.73-14.93a23.746,23.746,0,0,1,4.047-13.945Q48.781-41.262,58.953-41.262ZM59.5-3.691q7.191,0,10.4-5.154A21.939,21.939,0,0,0,73.117-20.7q0-7.082-3.705-11.4a12.646,12.646,0,0,0-10.131-4.32,13.193,13.193,0,0,0-10.172,4.279q-3.937,4.279-3.937,12.619A18.437,18.437,0,0,0,48.549-8.271Q51.926-3.691,59.5-3.691Zm44.352-18.074a10.545,10.545,0,0,0,6.057-1.531q2.229-1.531,2.229-5.523,0-4.293-3.117-5.852a10.187,10.187,0,0,0-4.457-.82H91.273v13.727Zm-18.02-18.4h18.594A18.544,18.544,0,0,1,112-38.828q5.66,2.57,5.66,9.488a10.67,10.67,0,0,1-1.49,5.906A10.768,10.768,0,0,1,112-19.742a8.217,8.217,0,0,1,3.541,2.516,9.035,9.035,0,0,1,1.326,5.059l.191,5.387a16.559,16.559,0,0,0,.383,3.418A3.361,3.361,0,0,0,119.191-.9V0H112.52a5.018,5.018,0,0,1-.437-1.34,25.717,25.717,0,0,1-.273-3.172l-.328-6.7q-.191-3.937-2.926-5.277a12.1,12.1,0,0,0-4.895-.738H91.273V0H85.832Zm68.031,0v4.785H140.328V0H134.8V-35.383H121.27v-4.785Zm5.5,0h27.863v4.922H164.8v12.2h19.715v4.785H164.8V0h-5.441Zm51.023-1.094q10.637,0,15.75,6.836,3.992,5.332,3.992,13.645,0,9-4.566,14.957-5.359,7-15.285,7-9.27,0-14.574-6.125-4.73-5.906-4.73-14.93a23.746,23.746,0,0,1,4.047-13.945Q200.211-41.262,210.383-41.262Zm.547,37.57q7.191,0,10.4-5.154A21.939,21.939,0,0,0,224.547-20.7q0-7.082-3.705-11.4a12.646,12.646,0,0,0-10.131-4.32,13.193,13.193,0,0,0-10.172,4.279Q196.6-27.863,196.6-19.523a18.437,18.437,0,0,0,3.377,11.252Q203.355-3.691,210.93-3.691Zm25.676-36.477h5.441V-4.785h20.344V0H236.605Zm32.375,0h5.5V0h-5.5Zm31.664-1.094q10.637,0,15.75,6.836,3.992,5.332,3.992,13.645,0,9-4.566,14.957-5.359,7-15.285,7-9.27,0-14.574-6.125-4.73-5.906-4.73-14.93a23.746,23.746,0,0,1,4.047-13.945Q290.473-41.262,300.645-41.262Zm.547,37.57q7.191,0,10.4-5.154A21.939,21.939,0,0,0,314.809-20.7q0-7.082-3.705-11.4a12.646,12.646,0,0,0-10.131-4.32A13.193,13.193,0,0,0,290.8-32.143q-3.937,4.279-3.937,12.619A18.437,18.437,0,0,0,290.24-8.271Q293.617-3.691,301.191-3.691Z" transform="translate(522 315)" fill="#fff"/>
  </g>
</svg>
