<svg xmlns="http://www.w3.org/2000/svg" width="42.196" height="48.458" viewBox="0 0 42.196 48.458">
  <path id="パス_15" data-name="パス 15" d="M33.06-16.994l.116.116.174.058.174.174-.29.232-.29-.116.29.232-.174.058a.935.935,0,0,1,.174.522c-.058,0-.174-.058-.232-.058a.7.7,0,0,1-.812-.116l1.218-1.682a5.458,5.458,0,0,0,1.276.7l-.348-.348.174-.116c.232.116.638.464.928.406l-.928-.638c-.116-.406.058-.522.406-.29.058-.116.232-.116.116-.232l-.116-.116-.174-.058c.058-.29.87.174,1.044.232l-.174-.174c.232.058.406.29.638.174l.174-.29c-.116-.116-1.682-.928-1.1-.986.464-.058.986.406,1.392.58,0-.058.058-.058.058-.116.812-1.392,1.392-4,2.2-5.1-.174-.174.464.058.29.174a26.957,26.957,0,0,1-2.146,4.988l-.174.058v.058c0,.058.058.058.058,0l-.058.174c-.058,0-.406.754-.522.87l.464.232c.174-.232.464-1.044.58-1.044l-.058-.116c.232.116.522-.29.754-.406l.116-.29.058.116c.522-.522.174-1.1.58-1.508.058-.232,0-.522.29-.58l.174-.29v-.058l.232-.348v-.058l.174-.348-.058-.116V-22.5l.116-.058.174-.464-.058-.058v-.174l.116-.058.058-.174c-.116-.116-.174-.174.058-.174l.058-.174a.28.28,0,0,1,0-.406c-.058-.058-.7-.29-.638-.406a1.471,1.471,0,0,1,.7.116c-.116-.116-.174-.232.058-.29v-.058c-.348-.174.174-.348-.058-.638l-.058-.174.058-.058c.058,0,.174-.058.232-.058v-.232l.058.116-.058-.174.058-.058a13.272,13.272,0,0,0,.058-2.61,2.877,2.877,0,0,0,.174-.754,3.415,3.415,0,0,1,.58,1.972c.812-3.828.928-7.888-1.044-11.368a8.211,8.211,0,0,0-2.726-3.248c-.522-.348-1.1-.522-1.624-.812a5.556,5.556,0,0,1-1.45-1.16,7.556,7.556,0,0,1,.87.58v-.116c-.348-.7-1.74-1.334-2.436-1.682v-.058l.116.058h.058c-1.972-1.566-4.7-1.74-7.076-1.914-6.67-.464-12.76,3.306-17.516,7.656C7.308-38.454,6.5-37,5.336-35.844A11.6,11.6,0,0,0,3.712-33.7c-.7.464-2.146,3.828-2.494,4.756C.754-27.666.7-26.39.29-25.114A20.022,20.022,0,0,1,.58-21.4l.232.058L.928-21.4l.232-.406c0,.29.116,1.276.406,1.392.522.29,2.378-.116,2.9-.232.058-.116-.058-.522-.058-.7a11.187,11.187,0,0,1-.058-2.784,15.157,15.157,0,0,1,1.1-3.828c.058-.174.348-.522.116-.7-.116-.058-.754,1.276-.87,1.566-.058.174-.116.406-.29.464a.125.125,0,0,1-.116-.116c.058-.348.348-.754.406-1.16l-.058.058A38.581,38.581,0,0,1,6.554-31.2a11.17,11.17,0,0,1,1.218-2.32c0-.116,0-.29.116-.29L8-33.872l.232-.29-.174.116a3.188,3.188,0,0,1,.406-.522v.058c2.378-3.074,5.394-4.814,8.526-6.844l-.116.058a11.745,11.745,0,0,0,1.74-1.218h.116a16.267,16.267,0,0,1,2.552-.87l-.058-.232c-.348.116-2.32.7-2.494.812h-.058A9.6,9.6,0,0,1,16.82-41.76l-.348.058a18.957,18.957,0,0,1,3.074-1.508,6.258,6.258,0,0,1,1.566-.58.349.349,0,0,0,.232-.058,14.318,14.318,0,0,1,4.176-.7,16.387,16.387,0,0,0,1.682.116,4.96,4.96,0,0,1-.928,0,14.77,14.77,0,0,0-4.756.7l.116.116a.824.824,0,0,1,.348.116,17.72,17.72,0,0,1,4.234-.58c.58,0,1.16-.174,1.74-.174A10.9,10.9,0,0,1,32.77-42.92l-.522-.29a9.792,9.792,0,0,1,2.2,1.1l.058-.058a11.974,11.974,0,0,1,1.8,1.624c2.378,8.236-4.93,23.9-11.716,29.812v.174l-.29.232a1.075,1.075,0,0,0-.406.116C22.156-8.7,20.242-7.366,18.56-5.8a14.5,14.5,0,0,0-2.378,1.45c-1.276.812-2.668,1.392-4,2.088l1.392-.58C11.774-1.74,6.9-.348,4.988-1.16,3.48-1.8,2.726-5.974,2.958-7.54c0-.174.058-.348.058-.522l.174-.406v-.348l.116-.174H3.248L3.422-9.4H3.48a1.287,1.287,0,0,1,.29-.638,1.107,1.107,0,0,1,.174-.464c.174-.058.174-.464.348-.638.348-.232.754-1.566,1.276-1.972a2.035,2.035,0,0,1,.29-.464,1.04,1.04,0,0,0,.406-.29c.522-.522.754-1.276,1.392-1.74A18.051,18.051,0,0,0,9.28-16.936H9.164a1.04,1.04,0,0,1,.406-.29l.87-.87c.058.058.058-.116.116-.058.174-.058.29-.232.464-.348l-.058.116A17.075,17.075,0,0,1,9.8-13.978l-.116.058A34.008,34.008,0,0,0,8.41-8.7c.174.58.812.754,1.334.928l.29-.116.348.464.348-1.044c.406-.058.58-1.334.986-2.03v.058l-.058.116c.116.406-.348.928-.174,1.276a3.128,3.128,0,0,0-.522,1.276l-.116-.116-.174.7.174.116c.406-.058.406-.29.7-.406a7.4,7.4,0,0,0,1.1-.058c.522-.174.464-.87.928-1.1.406-1.276.7-2.726,1.044-4a50.489,50.489,0,0,1,2.668-7.714c.058-.116.232-.29.174-.464a2.207,2.207,0,0,0,.522-.754v-.058c1.8-.464,3.48-.928,5.278-1.276-.348,0-.7.058-1.044.058a19.715,19.715,0,0,1,2.668-.348l.058-.058v-.174l-2.262.174.116-.174a29.5,29.5,0,0,1,3.19-.232L26.1-23.9h-.348v-.232h.986V-24.3a17.509,17.509,0,0,0-3.48-.174,16.533,16.533,0,0,1,1.682-.174,12.2,12.2,0,0,0-3.248.116v-.058h.116l.058-.116h.058l.058-.116h.174l-.058-.058c-.58.058-2.726.464-2.958.464a10.279,10.279,0,0,1,.87-1.8A29.366,29.366,0,0,1,21.4-28.884a19.743,19.743,0,0,1,1.334-3.074c0-.058,0-.116.058-.116a1.105,1.105,0,0,1,.29-.58,6.208,6.208,0,0,0,.754-1.8,4.018,4.018,0,0,0,1.044-2.494c0-.58.406-1.044.464-1.624.174-1.566-2.552-2.668-3.6-3.48l-.29.058c-.464-.522-.986-.29-1.45.058a3.337,3.337,0,0,0-.29,1.508c-1.276,2.668-2.03,5.51-3.248,8.178a70.094,70.094,0,0,0-3.654,8.642l-.174.116a3.354,3.354,0,0,0-.29.812,2.271,2.271,0,0,0-.464.58,15.319,15.319,0,0,0-2.668,1.566l-.058.174-.174.116H8.816l-.928.638v.116c-.29.406-1.218.7-1.682,1.044v.232l-.232-.058-.87.812v.116l-.464.348-.058.174-.116.058c-.116.174-.29.29-.348.522l-.174.058-.174.174v.232H3.6c-.174.174-.29.58-.58.7l-.348.522v.116a11.264,11.264,0,0,1-1.334,1.914A17.682,17.682,0,0,0,.058-9.222C0-8.7-.058-8-.174-7.482l-.058.058c0,2.32.406,2.03.638,3.828v.116a5.441,5.441,0,0,0,.522.7C1.914-.58,4.988.464,7.192.928c.638.116,1.334,0,1.972.058a9.4,9.4,0,0,1-1.276.058A23.877,23.877,0,0,0,15.776.29,1.786,1.786,0,0,1,16.53.116,25.182,25.182,0,0,1,20.184-.928c3.538-1.392,8.062-5.22,10.788-8.12l.232-.116,1.566-2.03c-.7.7-1.16,1.45-2.32,1.334l-.464.406V-9.57l.29-.348h-.058l.174-.232v-.058l.7-.754.174.116-.232.348c.058,0,.116,0,.116.058l.116-.058.29.174v-.058a6.208,6.208,0,0,1,.812-.928,1.105,1.105,0,0,0,.58-.29h.174c.232-.638,1.856-2.2,1.972-2.668.058-.29-.116-.7,0-.986-.464-.406-.406-.116-.58.174a1.844,1.844,0,0,1-.7-.638c-.174-.232.638.174.754.174l-.058-.174-.754-.522.29-.116c.058.058.754.464.7.232,0-.058-.348-.58-.406-.7l-.754-.406a.625.625,0,0,1-.464.116,1.166,1.166,0,0,0,.464.232c.174.174-.348-.058-.232.058l-.232-.174Zm-21.286-22.1-.29.058c-.7.986-2.088,1.972-3.19,3.538a.319.319,0,0,1-.29.174l-.058.29-.116.116a.249.249,0,0,0-.232.232,31.516,31.516,0,0,0-3.712,6.9v.058H3.77l-.058-.116a6.672,6.672,0,0,1,.7-1.856,23.926,23.926,0,0,1,4.06-6.67c.7-.87,1.566-1.566,2.262-2.378l.232-.116A33.413,33.413,0,0,1,13.8-40.89l.116.116C13.108-40.31,12.528-39.556,11.774-39.092Zm2.088,16.066.232-.174v-.29c.348-.522.406-1.276.7-1.74a.935.935,0,0,0,.232-.406,10.678,10.678,0,0,0,.522-1.45c0-.116.174-.174.232-.232v-.232l.058-.116c.116,0,.232-.116.174-.232.812-2.088,2.088-3.944,3.016-6.032H19.2l.058.058A14.394,14.394,0,0,1,18.1-31.32c.058.348-.348.928-.464,1.218-.29.754-.87,1.392-1.16,2.146a47.813,47.813,0,0,1-2.03,4.7A2.424,2.424,0,0,0,13.862-23.026Zm25.4-4.582a2.911,2.911,0,0,0-.7-.116s-.174,0-.174.058a1.606,1.606,0,0,0,.522.058v.058l.348.058c.406.406-.754.29-.87.29a4.272,4.272,0,0,0,.812.232c.116.116-.232.058-.232.058H38.8l.058.058h0c.058,0,.348.116.348.232l-.348.522a2.35,2.35,0,0,1-.638,0,2.827,2.827,0,0,1,.638.232c-.232,0-.348.116-.29.348a2.114,2.114,0,0,0-.87-.116,1.606,1.606,0,0,0,.754.174l.232.116a1.95,1.95,0,0,1-1.508-.174l-.058-.058.174-.116.232-.7H37.7l-.174-.116c.29-.928.058-1.218.406-.87a2.215,2.215,0,0,1-.348-.928h.174c.29,0,.058-.058-.058-.116h-.116v-.058l.348-.058c.29.116.29.232.522.348.116.174-.232.174.058.348a2.119,2.119,0,0,1,.87.174Zm-5.916,14.5c-.116-.058-.232-.058-.348-.174l.058.29-.116.058-.058.174c-.058,0-.174-.058-.232-.058l-.638.406c-.29-.29-1.1-.928-1.392-1.16l.116-.116c.058,0,.87.7.7.348a5.883,5.883,0,0,0,.754.522h.116c-.348-.406-1.1-.638-1.276-1.1a.443.443,0,0,1,.29.116c-.058-.116,0-.174.116-.232v-.058l1.218.87.116-.116-.232-.232c.174.058.232-.058.058-.174l-.754-.464c-.058-.116-.464-.464-.348-.464l.522.348c.058-.232.7.406.812.464L33-13.92c-.464-.464-.986-.754-1.45-1.218a5.068,5.068,0,0,1,1.8,1.276l-.174.116.058.174-.116.116.29.174Zm-1.74.928a3.04,3.04,0,0,1-.58.638h-.058l-.116.116a1.166,1.166,0,0,1-.232.754l-.29.232a1.4,1.4,0,0,0-.464.348,2.172,2.172,0,0,1-.754-.7l.116-.116.174.232c.464-.754,1.218-1.334,1.74-2.088a3.5,3.5,0,0,1,.464.464Zm-15.892-12.3a2.288,2.288,0,0,1-.348.87l-.232.058.116-.116a5.017,5.017,0,0,1,.406-.986v-.058a75.735,75.735,0,0,1,4.176-8.41C19.778-32.828,15.718-24.476,15.718-24.476ZM4.408-27.9l-.116.116a19.356,19.356,0,0,1,1.914-4.176C6.5-32.828,7.83-34.1,8-34.742a6.478,6.478,0,0,0,1.1-1.392c.522-.638,1.16-1.16,1.74-1.74h.116c-.406.812-1.624,1.566-2.146,2.436-.348.58-.87,1.044-1.218,1.566A23.706,23.706,0,0,0,4.408-27.9ZM33.35-14.906c.406-.464.928.754.986,1.044a.736.736,0,0,1-.348.058c-.348-.232-2.146-1.334-2.262-1.508l.058-.058a15.516,15.516,0,0,0,1.624,1.044l.058-.058a8,8,0,0,1-1.624-1.1l.174-.232A10.215,10.215,0,0,0,33.35-14.906ZM1.856-5.8v-.464A1.765,1.765,0,0,1,1.8-7.482a13.346,13.346,0,0,1,2.03-5.278l.464-.58A12.782,12.782,0,0,0,1.914-5.8ZM17.11-31.262v-.058c.638-.812.754-2.03,1.45-2.726a29.791,29.791,0,0,1-2.552,5.1ZM13.456-19.778l.232-.116a2.954,2.954,0,0,1-.406.986c-.348.986-.7,2.2-1.1,3.132,0-.058-.116-.348-.116-.406C12.644-17.284,12.876-18.618,13.456-19.778Zm21.46.232.174.174-.058.116a.154.154,0,0,0-.174.174c.174.116-.058.174-.174.174h-.116c.174.116.29.232.116.29a1.166,1.166,0,0,0-.464-.232l.116-.174.348-.58.174.116.058-.058-.232-.116.116-.174a.935.935,0,0,0,.406.232C35.148-19.488,34.974-19.546,34.916-19.546Zm-25.23,6.09.232.116a9.358,9.358,0,0,1-.87,2.088C9.28-11.948,9.512-12.7,9.686-13.456Zm12.47,10.5a51.143,51.143,0,0,0,4.988-3.77c.058-.174.812-.7.986-.928l.116-.058A37.358,37.358,0,0,1,22.156-2.958ZM38.164-24.882a5.853,5.853,0,0,1-.87-.406C37.642-25.23,38.8-25.056,38.164-24.882ZM19.778-36.192a3.624,3.624,0,0,1-.58,1.276l-.116-.058A13.033,13.033,0,0,1,19.778-36.192ZM28.362-7.83a1.166,1.166,0,0,1,.232-.464l.232-.058.232-.174a2.652,2.652,0,0,1,.928-.87ZM3.828-26.332a1.169,1.169,0,0,0-.174.638,1.843,1.843,0,0,0-.174.522,4.3,4.3,0,0,1,.29-1.45h.116Zm5.278,8.99.116-.174c.638-.406,1.16-.928,1.8-1.334.058,0,.116,0,.116-.058l-.058.174a11.863,11.863,0,0,0-2.03,1.45H8.99ZM34.22-18.386l-.174-.174.116-.174c.058.058.522.232.406.406ZM7.424-33.06l-.29.464H7.018l.232-.464.174-.116Zm5.1,13.34.116-.058v-.058l.232-.116-.174.406-.116-.058-.116.058Zm6.728-14.558c.058-.116.29-.58.29-.348l-.116.348-.116.058ZM34.22-17.98c-.116-.058-.29-.116-.348-.232l.058-.116h.058l.29.232H34.1Zm5.394-6.438c.232.174.348.232,0,.348ZM3.48-26.912a.987.987,0,0,1,.058-.406l.116-.058-.116.522Zm10.208,6.5.232-.058-.058.174c-.116,0-.174.058-.29.116ZM39.614-24.65l.058-.174.058-.058C39.962-24.708,39.788-24.708,39.614-24.65ZM12.7-19.43l-.116.232-.116-.116A.44.44,0,0,1,12.7-19.43Zm25.636-7.482a.86.86,0,0,0,.406.058C38.57-26.854,38.454-26.912,38.338-26.912Zm-3.77,8a.44.44,0,0,1-.232-.116ZM37.99-27.26c0-.058,0-.058-.058-.116C37.99-27.318,37.99-27.318,37.99-27.26ZM32.306-12.818a.057.057,0,0,0,.058.058Z" transform="translate(0.232 47.309)" fill="#b6710d"/>
</svg>
