<?xml version="1.0" encoding="utf-8"?>
<!-- Generator: Adobe Illustrator 25.4.1, SVG Export Plug-In . SVG Version: 6.00 Build 0)  -->
<svg version="1.1" id="レイヤー_1" xmlns="http://www.w3.org/2000/svg" xmlns:xlink="http://www.w3.org/1999/xlink" x="0px"
	 y="0px" viewBox="0 0 345.3 178.6" style="enable-background:new 0 0 345.3 178.6;" xml:space="preserve">
<style type="text/css">
	.st0{fill:#339944;}
	.st1{fill:#F2F2F2;}
	.st2{fill:#05933E;}
	.st3{enable-background:new    ;}
	.st4{fill:#333333;}
</style>
<path class="st0" d="M135.1,109.3c0,36.9-29.9,66.8-66.8,66.8c-47.8,0-66.8-29.9-66.8-66.8s31.1-76.1,66.8-66.8
	C114.2,54.6,135.1,72.4,135.1,109.3z"/>
<g>
	<path class="st1" d="M111.7,127.1H82.5c-0.4,0.7-0.9,1.6-1.2,2.7c-1.6,7,6.3,17.4,14.2,18.7c14.5,2.3,30.6-26.9,34.1-24.5
		c0.3,0.2,0.5,0.6,0.5,1.6c-0.2,10.5-27.8,44.2-43.7,37.8c-12.1-4.9-12.1-30.8-16.3-30.2c-2.8,0.3-1.8,11.8-11,22.6
		c-1.8,2-3,3.5-5.3,4.8c-11.5,6.6-27.7-4.2-28.5-4.8c-14.5-10-17.3-28-16.1-28.6c1-0.5,3.9,8.2,13.9,15.2c4.6,3.2,11.4,7.9,18.7,5.8
		c7.9-2.3,14.1-11.9,12.1-18.3c-0.3-1-0.8-1.9-1.3-2.5H23.8c-0.9,0-1.6-0.7-1.6-1.6v-7.4c0-0.9,0.7-1.6,1.6-1.6h34.4
		c0.7,0,1.4-0.5,1.5-1.2c0.4-2,0.7-4.1,1-6.2c0.1-1-0.7-1.9-1.7-1.8c-8.6,0.8-17.4,1.2-25.7,1.4c-0.8,0-1.5-0.5-1.6-1.3
		c-0.4-2-1-4.4-1.8-6.4c-0.4-1,0.3-2.1,1.4-2.2c19.4-0.7,40.7-2.7,56-6.1c1-0.2,1.5-1.3,1.1-2.2c-1.2-2.5-2.9-5.3-4.5-8
		c-0.3-0.5-0.8-0.7-1.3-0.7h-4c-0.5,0-1,0.3-1.3,0.7c-2.5,3.7-5.2,7.2-8,10c-0.5,0.5-1.4,0.6-2,0.2c-1.9-1.3-4.4-2.8-6.7-4
		c-1-0.5-1.2-1.8-0.4-2.5c0.6-0.6,1.1-1.1,1.7-1.7c0.9-1,0.2-2.7-1.2-2.7h-5.8c-1.1,0-1.9,1.2-1.4,2.2c0.9,2,1.7,4,2.2,5.7
		c0.2,0.8-0.2,1.6-1,1.9l-7.2,2.8c-0.9,0.3-1.8-0.2-2.1-1.1c-0.8-3.1-2.4-7.1-4.1-10.7C41,82.3,40.5,82,39.9,82h-0.2
		c-0.6,0-1.1,0.3-1.4,0.8c-2.2,3.9-4.8,7.6-7.4,10.6c-0.5,0.6-1.4,0.7-2.1,0.2c-1.9-1.3-4.5-2.9-6.8-4c-0.9-0.5-1.1-1.7-0.4-2.5
		c5.5-5.9,10.1-15.1,12.8-24.2c0.2-0.8,1.1-1.3,1.9-1.1L48,65c-0.2,0.5-0.8,0.9-1.6,1.1c-0.6,0.1-1,0.5-1.2,1.1
		c-0.3,0.9-0.6,1.7-0.9,2.6c-0.4,1,0.4,2.1,1.5,2.1H65c0.9,0,1.6,0.7,1.6,1.6l0,0c0,1.6,2.1,2.2,2.9,0.8c2.2-3.6,4-7.5,5.4-11.4
		c0.3-0.8,1.1-1.2,1.9-1l11.6,3.5c-0.2,0.6-0.9,1-1.8,1.1c-0.6,0.1-1,0.5-1.2,1c-0.3,0.8-0.6,1.5-0.9,2.2c-0.4,1,0.3,2.2,1.4,2.2
		h25.5c0.9,0,1.6,0.7,1.6,1.6v7c0,0.9-0.7,1.6-1.6,1.6H99.2c-1.2,0-2,1.3-1.3,2.4c0.9,1.5,1.7,3,2.3,4.3c0.4,0.8,0,1.8-0.9,2.1
		l-1.8,0.7c-1,0.4-1.3,1.6-0.7,2.4l5.4,7c-0.4,0.3-0.8,0.4-1.4,0.4c-0.3,0-0.6,0-0.9,0c-0.2,0-0.4,0-0.7,0c-7,1.9-15.7,3.4-25.1,4.6
		l-0.1,1.1c-0.2,0.9,1.2,1,0,1.3c-0.4,0.1,0,0.2-0.1,0.6c-0.4,2-0.8,4-1.2,6c-0.2,1,0.5,1.9,1.6,1.9h37.2c0.9,0,1.6,0.7,1.6,1.6
		C112.8,121.1,112.3,124.1,111.7,127.1z"/>
	<path class="st0" d="M236.3,132.4h-31.8c-0.5,0.7-0.6,1.2-0.6,1.6c-0.2,5.9,22.7,16.2,38.8,10.4c2.4-0.9,4.7-2.1,5.3-1.4
		c1.1,1.3-5.6,8.9-13.6,13.7c-3.3,2-6.2,3.2-8.3,3.9c-2.1,0.4-4.2,0.8-6.3,1.3c-2.8,0.2-7.3,0.1-11.9-2.2
		c-5.8-2.8-9.1-7.6-12.3-12.5c-5.3-8-5.8-12.9-8.3-12.9c-2.6,0-2.9,5.4-8.3,12.6c-2.4,3.3-6.9,9.2-14.8,11.5
		c-0.9,0.3-9.7,2.7-17.7-1.6c-0.4-0.2-0.6-0.4-1.1-0.6c-6.3-3.8-12.1-9.7-11.1-11.3c0.6-1,3.4,0,6.7,0.5
		c15.2,2.5,28.5-7.8,32.2-11.5c0.6-0.6,0.2-1.6-0.6-1.6h-30.4c-0.5,0-0.9-0.4-0.9-0.9v-9.1c0-0.5,0.4-0.9,0.9-0.9h36.7
		c0.4,0,0.8-0.3,0.9-0.8c0.3-1.5,0.5-3,0.8-4.7c0.1-0.6-0.4-1.1-0.9-1.1h-37.3c-0.5,0-0.9-0.4-0.9-0.9v-9.3c0-0.5,0.4-0.9,0.9-0.9
		h39.1c0.5,0,0.9-0.4,0.9-0.9v-3.5c0-0.5-0.4-0.9-0.9-0.9h-28.2c-0.5,0-0.9-0.4-0.9-0.9v-8.7c0-0.5,0.4-0.9,0.9-0.9h28.2
		c0.5,0,0.9-0.4,0.9-0.9v-3.3c0-0.5-0.4-0.9-0.9-0.9h-34c-0.5,0-0.9-0.4-0.9-0.9v-9.2c0-0.5,0.4-0.9,0.9-0.9h16.6
		c0.7,0,1.2-0.8,0.8-1.4c-1.2-2.3-2.7-4.6-4.3-6.7c-0.4-0.5-0.2-1.2,0.4-1.4l9-3.6c0.4-0.2,0.8-0.1,1.1,0.2
		c2.9,3.2,5.7,7.5,7.1,10.8c0.2,0.5,0,1-0.5,1.2l-1.8,0.8H200l-0.5-0.2c-0.6-0.2-0.8-0.9-0.4-1.4c2.4-3.3,4.9-7.6,6.5-11
		c0.2-0.4,0.7-0.7,1.1-0.5l11.8,3.9c1,0.3,0.8,1.8-0.2,1.8c0,0,0,0-0.1,0c-0.3,0-0.6,0.1-0.7,0.4c-1.2,1.7-2.8,3.6-4.3,5.5
		c-0.5,0.6-0.1,1.5,0.7,1.5h17c0.5,0,0.9,0.4,0.9,0.9v9.2c0,0.5-0.4,0.9-0.9,0.9h-34.6c-0.5,0-0.9,0.4-0.9,0.9v3.3
		c0,0.5,0.4,0.9,0.9,0.9h29.2c0.5,0,0.9,0.4,0.9,0.9v8.7c0,0.5-0.4,0.9-0.9,0.9h-29.2c-0.5,0-0.9,0.4-0.9,0.9v3.5
		c0,0.5,0.4,0.9,0.9,0.9h39.8c0.5,0,0.9,0.4,0.9,0.9v9.3c0,0.5-0.4,0.9-0.9,0.9h-39c-0.3,0-0.6,0.1-0.7,0.3c-0.4,0.5-1,0.9-1.9,1.1
		c-0.4,0.1-0.6,0.4-0.7,0.7l-0.6,3.2c-0.1,0.6,0.3,1.1,0.9,1.1h42.4c0.5,0,0.9,0.4,0.9,0.9C236.9,125.7,236.6,129.1,236.3,132.4z"/>
	<path class="st0" d="M256.2,65.6h88.1c0.5,0,1,0.4,1,1v92.7c0,0.3,0,0.4,0,0.4l0,0c0,0-0.9,1-1,1.1c-0.5,0.6-1.6,1.2-4.2,1.6
		c-0.3,0-5.3,0.5-6.7-2.1c-0.1-0.3-0.3-0.6-0.3-1v-1.8c0-0.5-0.4-1-1-1H268c-0.5,0-1,0.4-1,1v1.8c-0.1,0.2-0.2,0.5-0.3,0.7
		c-2,3.3-11.1,1.1-12.3,0.8c1.2,0.3,2.3,0.6,3.5,0.8c-0.3,0.1-3.3-0.6-3.5-0.8C255.1,129,255.6,97.3,256.2,65.6z M268,145.2h64.1
		c0.5,0,1-0.4,1-1V77.8c0-0.5-0.4-1-1-1H268c-0.5,0-1,0.4-1,1v66.4C267.1,144.7,267.5,145.2,268,145.2z M322.6,118.6l7,4.7
		c0.8,0.6,0.4,1.8-0.6,1.7l0,0c-0.2,0-0.5,0-0.6,0.2c-1.9,1.3-4.7,3-7.3,4.5c-0.7,0.4-0.6,1.4,0.1,1.7c2.9,1.3,6,2.3,9.1,3.2
		c0.7,0.2,1,1.1,0.4,1.6c-1.7,1.7-3.6,4.2-4.8,6.1c-0.2,0.4-0.7,0.5-1.1,0.4c-6.8-2.2-13.5-5.9-19.1-10.4c-0.6-0.5-1.6-0.1-1.6,0.8
		v8.9c0,0.5-0.4,1-1,1h-9c-0.5,0-1-0.4-1-1v-8.2c0-0.7-0.8-1.2-1.4-0.8c-5.1,2.9-10.7,5.4-16.2,7.3c-0.4,0.1-0.8,0-1.1-0.3
		c-1.2-1.7-3.2-4.1-4.8-5.9c-0.5-0.5-0.2-1.3,0.4-1.5c7-2.2,14.2-5.3,20.3-9.2c0.8-0.5,0.4-1.8-0.5-1.8h-11.1c-0.5,0-1-0.4-1-1
		v-15.4c0-0.5,0.4-1,1-1H321c0.5,0,1,0.4,1,1v14.1L322.6,118.6z M329.3,94.8v5.2c0,0.5-0.4,1-1,1h-56.7c-0.5,0-1-0.4-1-1v-5.2
		c0-0.5,0.4-1,1-1h21.6c0.5,0,1-0.4,1-1v-2.1c0-0.5-0.4-1-1-1H277c-0.5,0-1-0.4-1-1v-5c0-0.5,0.4-1,1-1h16.2c0.5,0,1-0.4,1-1v-2.8
		c0-0.6,0.5-1,1-1c3.5,0.1,6.9,0.1,10.4,0.1c0.7,0.6,1,1.5,0.7,2.3c-0.2,0.5-0.5,0.8-0.7,0.9V82c0,0.5,0.4,1,1,1H323
		c0.5,0,1,0.4,1,1v5c0,0.5-0.4,1-1,1h-16.5c-0.5,0-1,0.4-1,1v2.1c0,0.5,0.4,1,1,1h21.8C328.8,93.8,329.3,94.2,329.3,94.8z
		 M288.1,111.2v3.2c0,0.5,0.4,1,1,1H310c0.5,0,1-0.4,1-1v-3.2c0-0.5-0.4-1-1-1h-21C288.5,110.2,288.1,110.7,288.1,111.2z
		 M307.2,121.5l-0.6,0.6c1.3,1.4,3,2.8,4.8,4c0.3,0.2,0.8,0.2,1.1,0c1.4-0.9,2.8-1.9,4.2-2.9c0.8-0.6,0.4-1.7-0.6-1.7H307.2z"/>
</g>
<path class="st1" d="M154.1,143.4"/>
<path class="st2" d="M318.7,75"/>
<path class="st2" d="M195.1,160.2"/>
<g class="st3">
	<path class="st4" d="M52.2,13.6c0,0.2-0.2,0.4-0.6,0.4v3.1H56v2h-4.4v8.7c0,1.3-0.3,1.9-1.2,2.2c-0.9,0.3-2.4,0.3-5,0.3
		c-0.1-0.6-0.4-1.4-0.6-2c1.1,0,2.1,0.1,2.9,0.1c1.6,0,1.9,0,1.9-0.6v-8.7h-11v-1.2L35,19v11.4h-2V19.5l-4.1,1.2
		c0,0.3-0.2,0.4-0.4,0.5l-0.9-2.5c1.5-0.3,3.3-0.8,5.4-1.3V9.8h-2.7c-0.3,1.9-0.8,3.6-1.3,5c-0.3-0.3-1-0.8-1.4-1.1
		c0.9-2.5,1.5-6.8,1.8-10.9l2.4,0.6c-0.1,0.2-0.3,0.3-0.6,0.3c-0.1,1.3-0.3,2.7-0.5,4H33V1.2l2.6,0.2c0,0.2-0.2,0.4-0.6,0.4v6h4v2
		h-4v7.1c1.4-0.3,2.7-0.7,4.1-1.1l0.1,1.3h10.3v-3.7L52.2,13.6z M48,11h8.3v2H38.1v-2h7.8V6.9h-6.1V4.9h6.1V1.1l2.7,0.2
		c0,0.2-0.2,0.4-0.6,0.4v3.2h6.5v1.9H48V11z M43.8,26.6c-0.6-1.5-2.3-3.7-3.7-5.3l1.6-0.9c1.5,1.5,3.1,3.7,3.8,5.2L43.8,26.6z"/>
	<path class="st4" d="M76.1,16.7l0.4,0l1.1,0.1c0,0.2,0,0.4,0,0.7c-0.4,8.1-0.7,11-1.5,12c-0.7,0.8-1.2,0.9-3.4,0.9
		c-0.7,0-1.6,0-2.4-0.1c-0.1-0.6-0.3-1.4-0.6-1.9c1.6,0.2,3.1,0.2,3.6,0.2c0.6,0,0.8-0.1,1.1-0.3c0.6-0.6,0.9-3.1,1.2-9.6h-5.4
		c-0.7,4.3-2.1,8.8-5.2,11.7c-0.3-0.4-1-1-1.5-1.4c4.1-3.6,5-10.6,5.3-16h-3.5V2.6h12.3v10.3h-6.7c-0.1,1.2-0.2,2.5-0.4,3.8H76.1z
		 M67.2,4.5V11h8.4V4.5H67.2z M80.9,5l2.6,0.2c0,0.2-0.2,0.4-0.6,0.4v17h-2V5z M88.6,1.7l2.7,0.2c0,0.3-0.2,0.4-0.6,0.4v25.1
		c0,1.5-0.4,2.2-1.4,2.5c-1,0.4-2.7,0.4-5.6,0.4c-0.1-0.6-0.5-1.5-0.8-2.1c1.1,0,2.2,0,3.1,0c2.5,0,2.6,0,2.6-0.8V1.7z"/>
	<path class="st4" d="M121.5,24.3H115c1,0.8,2.2,1.5,3.6,2.1c1.7-0.8,3.8-1.9,5.1-2.8l1.9,1.2c-0.1,0.2-0.3,0.2-0.6,0.2
		c-1.1,0.6-2.9,1.4-4.4,2.1c2.1,0.7,4.6,1.1,7.1,1.4c-0.4,0.4-0.9,1.2-1.2,1.8c-3.4-0.4-6.6-1.3-9.2-2.6l-0.1,1.1
		c-5.1,0.4-10.6,0.8-14,1c0,0.3-0.2,0.4-0.4,0.4l-0.8-2.2c1.1-0.1,2.4-0.1,3.9-0.2V17.5c-1.7,1.3-3.6,2.4-5.4,3.2
		c-0.3-0.4-0.9-1.1-1.3-1.5c3-1.2,6.2-3.2,8.2-5.7h-7.7v-1.7h12.9v-2h-9V8.3h9V6.3h-10.9V4.6h6.1c-0.5-0.9-1.2-2-1.9-2.8l1.8-0.7
		c1,1,1.9,2.5,2.3,3.4l-0.2,0.1h7.5l-0.1,0c0.7-1,1.6-2.5,2.1-3.5l2.5,0.8c-0.1,0.2-0.3,0.3-0.6,0.3c-0.5,0.7-1.1,1.7-1.7,2.5h6.2
		v1.7h-11v1.9h9.1v1.6h-9.1v2h13v1.7h-7.8c2,2.3,5.2,4.2,8.3,5.1c-0.4,0.4-1,1.2-1.3,1.7c-1.9-0.7-3.7-1.7-5.3-2.9V24.3z
		 M120.1,16.3c-0.9-0.8-1.7-1.7-2.4-2.7H110c-0.7,0.9-1.5,1.8-2.4,2.7h5.1v-2l2.6,0.2c0,0.2-0.2,0.4-0.6,0.4v1.4H120.1z M108,17.8
		v1.8h11.4v-1.8H108z M108,22.8h11.4v-1.9H108V22.8z M108,24.3v3.4c2.6-0.2,5.5-0.3,8.4-0.5c-1.5-0.8-2.7-1.8-3.7-3H108z"/>
	<path class="st4" d="M145.3,6.4v1.8h-10.1V6.4H145.3z M144.4,19.3v9.2h-6.3V30h-1.7V19.3H144.4z M136.5,12.4v-1.7h8v1.7H136.5z
		 M136.5,16.7V15h8v1.7H136.5z M144.4,2.3V4h-7.7V2.3H144.4z M142.7,21h-4.5v5.7h4.5V21z M148,19.4v-7.8c-0.7,0.8-1.4,1.6-2.1,2.2
		c-0.2-0.3-0.8-1-1.2-1.3c1.8-1.5,3.6-4,4.7-6.5l1.1,0.4V4.8h-4.7V3.2h4.7V1.1l2.5,0.2c0,0.2-0.2,0.4-0.6,0.4v1.5h4.9V1.1l2.5,0.2
		c0,0.2-0.2,0.4-0.6,0.4v1.5h4.5v1.7h-4.5v1.8h-1.9V4.8h-4.9v1.8h-1.3l0.5,0.2c-0.1,0.2-0.3,0.3-0.6,0.3c-0.3,0.6-0.6,1.1-0.9,1.7h4
		c0.4-0.8,0.9-1.9,1.2-2.6l2.3,0.7c-0.1,0.2-0.2,0.3-0.6,0.3c-0.3,0.5-0.6,1.1-1,1.6h7v1.5h-6.7v1.6h5.9v1.3h-5.9v1.6h5.9v1.4h-5.9
		v1.7h7.4v1.5H148z M146.4,20.9h14.5c0.3-0.1,0.3-0.1,0.4-0.1c0.2,0.1,0.3,0.2,1.3,0.7c-0.1,0.2-0.2,0.3-0.3,0.3
		c-1.2,2.1-3.1,3.7-5.3,5c2.2,0.9,4.7,1.5,7.2,1.9c-0.4,0.4-1,1.2-1.2,1.7c-2.8-0.5-5.6-1.4-8-2.5c-2.8,1.3-6.1,2.1-9.3,2.6
		c-0.2-0.5-0.6-1.2-0.9-1.7c2.9-0.3,5.8-1,8.3-2c-1.7-1.1-3.1-2.3-4.1-3.7l1.1-0.4h-3.7V20.9z M154.4,11.9v-1.6h-4.4v1.6H154.4z
		 M154.4,14.9v-1.6h-4.4v1.6H154.4z M154.4,17.9v-1.7h-4.4v1.7H154.4z M150.8,22.6c1,1.3,2.5,2.4,4.3,3.3c1.8-0.9,3.3-2,4.4-3.3
		H150.8z"/>
	<path class="st4" d="M199.5,14.1h-11.9c-1.7,1.4-3.5,2.6-5.4,3.8v3.7c4.3-1.2,8.9-2.7,11.5-4.2l1.9,1.6c-0.1,0.1-0.2,0.1-0.6,0.1
		c-3.1,1.5-8.2,3.1-12.9,4.2v3c0,1.2,0.4,1.4,2.8,1.4h8.5c2.1,0,2.4-0.7,2.6-4.5c0.5,0.4,1.4,0.7,2,0.8c-0.3,4.5-1.1,5.6-4.5,5.6
		h-8.6c-3.8,0-4.9-0.7-4.9-3.4v-7.2c-2.5,1.4-5,2.6-7.6,3.7c-0.3-0.4-0.9-1.2-1.3-1.6c4.6-1.9,9.1-4.3,13.2-7.2h-12.7v-1.9h10.8V7.5
		h-8.1V5.6h8.1V1.1l2.7,0.2c0,0.2-0.2,0.4-0.6,0.4v3.9h8v1.4c1.4-1.5,2.6-3,3.7-4.6l2.3,1.3c-0.1,0.1-0.3,0.2-0.5,0.2
		c-0.1,0-0.2,0-0.3,0c-2.2,3-4.8,5.8-7.7,8.3h9.6V14.1z M184.4,12.2h2.4c1.8-1.4,3.5-3,5.1-4.7h-7.5V12.2z"/>
	<path class="st4" d="M222.9,2.4c0,0.3-0.2,0.4-0.6,0.5l-0.1,0.9c0.3,4.4,2.2,19.1,14,24.6c-0.6,0.4-1.2,1.2-1.6,1.8
		c-8.3-4-11.8-12.6-13.2-19.1h0c-1.3,6.4-4.5,14.6-12.8,19.1c-0.4-0.5-1-1.2-1.7-1.6c12.9-6.6,13-22,13.2-26.3L222.9,2.4z"/>
	<path class="st4" d="M251.8,15.7c-1.4,3.7-3.5,7-5.8,9.3l-1.8-1.2c2.2-2.2,4.4-5.2,5.6-8.9L251.8,15.7z M258.3,10.8v15
		c0,3.5-2.7,3.5-7.3,3.4c-0.1-0.6-0.4-1.4-0.7-2.1c0.7,0,4.2,0,4.5,0c0.9,0,1.3-0.6,1.3-1.3v-15h-10.5V8.7h10.5V2.2l2.9,0.2
		c0,0.3-0.2,0.6-0.7,0.6v5.7h10.4v2.1H258.3z M263.9,14.7c2.3,2.5,4.8,6.2,6.5,9.2l-2,1.2c-1.5-2.9-4.2-6.9-6.3-9.3L263.9,14.7z"/>
	<path class="st4" d="M279.7,14.1h25.8v2.2h-24.6c-0.2,0.3-0.6,0.5-1,0.6L279.7,14.1z"/>
	<path class="st4" d="M339.2,28.6c-0.5-1.1-1-2.2-1.6-3.3c-6.4,0.7-17,1.4-21.7,1.6c-0.1,0.3-0.3,0.6-0.6,0.6l-0.8-2.8
		c0.9,0,2-0.1,3.2-0.1c2-6,5-15.4,6.7-21.7l3,0.8c-0.1,0.3-0.4,0.4-0.9,0.4c-1.7,5.8-4.4,14.2-6.5,20.4c5.1-0.2,12.4-0.8,16.5-1.1
		c-1.6-2.7-3.6-5.6-5.5-7.7l1.9-1.1c3.2,3.6,6.9,9.6,8.5,13L339.2,28.6z"/>
</g>
</svg>
